%TF.GenerationSoftware,KiCad,Pcbnew,(5.1.9)-1*%
%TF.CreationDate,2021-01-25T19:02:33+00:00*%
%TF.ProjectId,RC-DC-Motor_Splitter,52432d44-432d-44d6-9f74-6f725f53706c,rev?*%
%TF.SameCoordinates,Original*%
%TF.FileFunction,Copper,L1,Top*%
%TF.FilePolarity,Positive*%
%FSLAX46Y46*%
G04 Gerber Fmt 4.6, Leading zero omitted, Abs format (unit mm)*
G04 Created by KiCad (PCBNEW (5.1.9)-1) date 2021-01-25 19:02:33*
%MOMM*%
%LPD*%
G01*
G04 APERTURE LIST*
%TA.AperFunction,SMDPad,CuDef*%
%ADD10R,0.600000X3.000000*%
%TD*%
%TA.AperFunction,ComponentPad*%
%ADD11O,1.700000X1.700000*%
%TD*%
%TA.AperFunction,ComponentPad*%
%ADD12R,1.700000X1.700000*%
%TD*%
%TA.AperFunction,SMDPad,CuDef*%
%ADD13R,2.540000X2.000000*%
%TD*%
%TA.AperFunction,SMDPad,CuDef*%
%ADD14R,1.100000X0.510000*%
%TD*%
%TA.AperFunction,ViaPad*%
%ADD15C,0.800000*%
%TD*%
%TA.AperFunction,Conductor*%
%ADD16C,0.500000*%
%TD*%
%TA.AperFunction,Conductor*%
%ADD17C,0.250000*%
%TD*%
%TA.AperFunction,Conductor*%
%ADD18C,0.400000*%
%TD*%
G04 APERTURE END LIST*
%TO.P,C2,2*%
%TO.N,GND*%
%TA.AperFunction,SMDPad,CuDef*%
G36*
G01*
X110644500Y-78330599D02*
X110644500Y-79630601D01*
G75*
G02*
X110394501Y-79880600I-249999J0D01*
G01*
X109569499Y-79880600D01*
G75*
G02*
X109319500Y-79630601I0J249999D01*
G01*
X109319500Y-78330599D01*
G75*
G02*
X109569499Y-78080600I249999J0D01*
G01*
X110394501Y-78080600D01*
G75*
G02*
X110644500Y-78330599I0J-249999D01*
G01*
G37*
%TD.AperFunction*%
%TO.P,C2,1*%
%TO.N,+12V*%
%TA.AperFunction,SMDPad,CuDef*%
G36*
G01*
X113769500Y-78330599D02*
X113769500Y-79630601D01*
G75*
G02*
X113519501Y-79880600I-249999J0D01*
G01*
X112694499Y-79880600D01*
G75*
G02*
X112444500Y-79630601I0J249999D01*
G01*
X112444500Y-78330599D01*
G75*
G02*
X112694499Y-78080600I249999J0D01*
G01*
X113519501Y-78080600D01*
G75*
G02*
X113769500Y-78330599I0J-249999D01*
G01*
G37*
%TD.AperFunction*%
%TD*%
D10*
%TO.P,SW1,4*%
%TO.N,UPDI*%
X97360000Y-79135000D03*
%TO.P,SW1,5*%
%TO.N,GND*%
X97360000Y-86135000D03*
%TO.P,SW1,3*%
%TO.N,Input3*%
X98630000Y-79135000D03*
%TO.P,SW1,6*%
%TO.N,GND*%
X98630000Y-86135000D03*
%TO.P,SW1,2*%
%TO.N,Input2*%
X99900000Y-79135000D03*
%TO.P,SW1,7*%
%TO.N,GND*%
X99900000Y-86135000D03*
%TO.P,SW1,1*%
%TO.N,Input1*%
X101170000Y-79135000D03*
%TO.P,SW1,8*%
%TO.N,GND*%
X101170000Y-86135000D03*
%TD*%
D11*
%TO.P,J1,5*%
%TO.N,UPDI*%
X126290400Y-78831000D03*
%TO.P,J1,4*%
%TO.N,Motor1_In2*%
X123750400Y-78831000D03*
%TO.P,J1,3*%
%TO.N,Motor1_In1*%
X121210400Y-78831000D03*
%TO.P,J1,2*%
%TO.N,GND*%
X118670400Y-78831000D03*
D12*
%TO.P,J1,1*%
%TO.N,+5V*%
X116130400Y-78831000D03*
%TD*%
D13*
%TO.P,J11,1*%
%TO.N,RC_IN2*%
X92915000Y-79460000D03*
%TD*%
%TO.P,J5,2*%
%TO.N,GND*%
X92915000Y-85810000D03*
%TO.P,J5,1*%
%TO.N,+5V*%
X92915000Y-82635000D03*
%TD*%
%TO.P,J9,2*%
%TO.N,Net-(J9-Pad2)*%
X126570000Y-85810000D03*
%TO.P,J9,1*%
%TO.N,Net-(J9-Pad1)*%
X126570000Y-82635000D03*
%TD*%
%TO.P,J3,2*%
%TO.N,Net-(J3-Pad2)*%
X126570000Y-92160000D03*
%TO.P,J3,1*%
%TO.N,Net-(J3-Pad1)*%
X126570000Y-88985000D03*
%TD*%
%TO.P,J4,2*%
%TO.N,Net-(J4-Pad2)*%
X92915000Y-88985000D03*
%TO.P,J4,1*%
%TO.N,Net-(J4-Pad1)*%
X92915000Y-92160000D03*
%TD*%
D14*
%TO.P,U4,10*%
%TO.N,Net-(J4-Pad1)*%
X96080000Y-92890000D03*
%TO.P,U4,9*%
%TO.N,Net-(J4-Pad2)*%
X96080000Y-91890000D03*
%TO.P,U4,5*%
%TO.N,Motor6_In2*%
X101180000Y-88890000D03*
%TO.P,U4,8*%
%TO.N,Net-(J8-Pad1)*%
X96080000Y-90890000D03*
%TO.P,U4,7*%
%TO.N,Net-(J8-Pad2)*%
X96080000Y-89890000D03*
%TO.P,U4,6*%
%TO.N,GND*%
X96080000Y-88890000D03*
%TO.P,U4,4*%
%TO.N,Motor6_In1*%
X101180000Y-89890000D03*
%TO.P,U4,3*%
%TO.N,Motor5_In2*%
X101180000Y-90890000D03*
%TO.P,U4,2*%
%TO.N,Motor5_In1*%
X101180000Y-91890000D03*
%TO.P,U4,1*%
%TO.N,+12V*%
X101180000Y-92890000D03*
%TD*%
%TO.P,U3,10*%
%TO.N,Net-(J2-Pad1)*%
X124030000Y-88795000D03*
%TO.P,U3,9*%
%TO.N,Net-(J2-Pad2)*%
X124030000Y-89795000D03*
%TO.P,U3,5*%
%TO.N,Motor4_In2*%
X118930000Y-92795000D03*
%TO.P,U3,8*%
%TO.N,Net-(J3-Pad1)*%
X124030000Y-90795000D03*
%TO.P,U3,7*%
%TO.N,Net-(J3-Pad2)*%
X124030000Y-91795000D03*
%TO.P,U3,6*%
%TO.N,GND*%
X124030000Y-92795000D03*
%TO.P,U3,4*%
%TO.N,Motor4_In1*%
X118930000Y-91795000D03*
%TO.P,U3,3*%
%TO.N,Motor3_In2*%
X118930000Y-90795000D03*
%TO.P,U3,2*%
%TO.N,Motor3_In1*%
X118930000Y-89795000D03*
%TO.P,U3,1*%
%TO.N,+12V*%
X118930000Y-88795000D03*
%TD*%
%TO.P,U2,10*%
%TO.N,Net-(J7-Pad1)*%
X124030000Y-83080000D03*
%TO.P,U2,9*%
%TO.N,Net-(J7-Pad2)*%
X124030000Y-84080000D03*
%TO.P,U2,5*%
%TO.N,Motor2_In2*%
X118930000Y-87080000D03*
%TO.P,U2,8*%
%TO.N,Net-(J9-Pad1)*%
X124030000Y-85080000D03*
%TO.P,U2,7*%
%TO.N,Net-(J9-Pad2)*%
X124030000Y-86080000D03*
%TO.P,U2,6*%
%TO.N,GND*%
X124030000Y-87080000D03*
%TO.P,U2,4*%
%TO.N,Motor2_In1*%
X118930000Y-86080000D03*
%TO.P,U2,3*%
%TO.N,Motor1_In2*%
X118930000Y-85080000D03*
%TO.P,U2,2*%
%TO.N,Motor1_In1*%
X118930000Y-84080000D03*
%TO.P,U2,1*%
%TO.N,+12V*%
X118930000Y-83080000D03*
%TD*%
%TO.P,U1,20*%
%TO.N,GND*%
%TA.AperFunction,SMDPad,CuDef*%
G36*
G01*
X113480000Y-81515000D02*
X113480000Y-81215000D01*
G75*
G02*
X113630000Y-81065000I150000J0D01*
G01*
X115380000Y-81065000D01*
G75*
G02*
X115530000Y-81215000I0J-150000D01*
G01*
X115530000Y-81515000D01*
G75*
G02*
X115380000Y-81665000I-150000J0D01*
G01*
X113630000Y-81665000D01*
G75*
G02*
X113480000Y-81515000I0J150000D01*
G01*
G37*
%TD.AperFunction*%
%TO.P,U1,19*%
%TO.N,Motor2_In1*%
%TA.AperFunction,SMDPad,CuDef*%
G36*
G01*
X113480000Y-82785000D02*
X113480000Y-82485000D01*
G75*
G02*
X113630000Y-82335000I150000J0D01*
G01*
X115380000Y-82335000D01*
G75*
G02*
X115530000Y-82485000I0J-150000D01*
G01*
X115530000Y-82785000D01*
G75*
G02*
X115380000Y-82935000I-150000J0D01*
G01*
X113630000Y-82935000D01*
G75*
G02*
X113480000Y-82785000I0J150000D01*
G01*
G37*
%TD.AperFunction*%
%TO.P,U1,18*%
%TO.N,Motor1_In1*%
%TA.AperFunction,SMDPad,CuDef*%
G36*
G01*
X113480000Y-84055000D02*
X113480000Y-83755000D01*
G75*
G02*
X113630000Y-83605000I150000J0D01*
G01*
X115380000Y-83605000D01*
G75*
G02*
X115530000Y-83755000I0J-150000D01*
G01*
X115530000Y-84055000D01*
G75*
G02*
X115380000Y-84205000I-150000J0D01*
G01*
X113630000Y-84205000D01*
G75*
G02*
X113480000Y-84055000I0J150000D01*
G01*
G37*
%TD.AperFunction*%
%TO.P,U1,17*%
%TO.N,Motor1_In2*%
%TA.AperFunction,SMDPad,CuDef*%
G36*
G01*
X113480000Y-85325000D02*
X113480000Y-85025000D01*
G75*
G02*
X113630000Y-84875000I150000J0D01*
G01*
X115380000Y-84875000D01*
G75*
G02*
X115530000Y-85025000I0J-150000D01*
G01*
X115530000Y-85325000D01*
G75*
G02*
X115380000Y-85475000I-150000J0D01*
G01*
X113630000Y-85475000D01*
G75*
G02*
X113480000Y-85325000I0J150000D01*
G01*
G37*
%TD.AperFunction*%
%TO.P,U1,16*%
%TO.N,UPDI*%
%TA.AperFunction,SMDPad,CuDef*%
G36*
G01*
X113480000Y-86595000D02*
X113480000Y-86295000D01*
G75*
G02*
X113630000Y-86145000I150000J0D01*
G01*
X115380000Y-86145000D01*
G75*
G02*
X115530000Y-86295000I0J-150000D01*
G01*
X115530000Y-86595000D01*
G75*
G02*
X115380000Y-86745000I-150000J0D01*
G01*
X113630000Y-86745000D01*
G75*
G02*
X113480000Y-86595000I0J150000D01*
G01*
G37*
%TD.AperFunction*%
%TO.P,U1,15*%
%TO.N,Motor2_In2*%
%TA.AperFunction,SMDPad,CuDef*%
G36*
G01*
X113480000Y-87865000D02*
X113480000Y-87565000D01*
G75*
G02*
X113630000Y-87415000I150000J0D01*
G01*
X115380000Y-87415000D01*
G75*
G02*
X115530000Y-87565000I0J-150000D01*
G01*
X115530000Y-87865000D01*
G75*
G02*
X115380000Y-88015000I-150000J0D01*
G01*
X113630000Y-88015000D01*
G75*
G02*
X113480000Y-87865000I0J150000D01*
G01*
G37*
%TD.AperFunction*%
%TO.P,U1,14*%
%TO.N,Motor3_In1*%
%TA.AperFunction,SMDPad,CuDef*%
G36*
G01*
X113480000Y-89135000D02*
X113480000Y-88835000D01*
G75*
G02*
X113630000Y-88685000I150000J0D01*
G01*
X115380000Y-88685000D01*
G75*
G02*
X115530000Y-88835000I0J-150000D01*
G01*
X115530000Y-89135000D01*
G75*
G02*
X115380000Y-89285000I-150000J0D01*
G01*
X113630000Y-89285000D01*
G75*
G02*
X113480000Y-89135000I0J150000D01*
G01*
G37*
%TD.AperFunction*%
%TO.P,U1,13*%
%TO.N,Motor3_In2*%
%TA.AperFunction,SMDPad,CuDef*%
G36*
G01*
X113480000Y-90405000D02*
X113480000Y-90105000D01*
G75*
G02*
X113630000Y-89955000I150000J0D01*
G01*
X115380000Y-89955000D01*
G75*
G02*
X115530000Y-90105000I0J-150000D01*
G01*
X115530000Y-90405000D01*
G75*
G02*
X115380000Y-90555000I-150000J0D01*
G01*
X113630000Y-90555000D01*
G75*
G02*
X113480000Y-90405000I0J150000D01*
G01*
G37*
%TD.AperFunction*%
%TO.P,U1,12*%
%TO.N,Motor4_In1*%
%TA.AperFunction,SMDPad,CuDef*%
G36*
G01*
X113480000Y-91675000D02*
X113480000Y-91375000D01*
G75*
G02*
X113630000Y-91225000I150000J0D01*
G01*
X115380000Y-91225000D01*
G75*
G02*
X115530000Y-91375000I0J-150000D01*
G01*
X115530000Y-91675000D01*
G75*
G02*
X115380000Y-91825000I-150000J0D01*
G01*
X113630000Y-91825000D01*
G75*
G02*
X113480000Y-91675000I0J150000D01*
G01*
G37*
%TD.AperFunction*%
%TO.P,U1,11*%
%TO.N,Motor4_In2*%
%TA.AperFunction,SMDPad,CuDef*%
G36*
G01*
X113480000Y-92945000D02*
X113480000Y-92645000D01*
G75*
G02*
X113630000Y-92495000I150000J0D01*
G01*
X115380000Y-92495000D01*
G75*
G02*
X115530000Y-92645000I0J-150000D01*
G01*
X115530000Y-92945000D01*
G75*
G02*
X115380000Y-93095000I-150000J0D01*
G01*
X113630000Y-93095000D01*
G75*
G02*
X113480000Y-92945000I0J150000D01*
G01*
G37*
%TD.AperFunction*%
%TO.P,U1,10*%
%TO.N,Motor5_In1*%
%TA.AperFunction,SMDPad,CuDef*%
G36*
G01*
X104180000Y-92945000D02*
X104180000Y-92645000D01*
G75*
G02*
X104330000Y-92495000I150000J0D01*
G01*
X106080000Y-92495000D01*
G75*
G02*
X106230000Y-92645000I0J-150000D01*
G01*
X106230000Y-92945000D01*
G75*
G02*
X106080000Y-93095000I-150000J0D01*
G01*
X104330000Y-93095000D01*
G75*
G02*
X104180000Y-92945000I0J150000D01*
G01*
G37*
%TD.AperFunction*%
%TO.P,U1,9*%
%TO.N,Motor5_In2*%
%TA.AperFunction,SMDPad,CuDef*%
G36*
G01*
X104180000Y-91675000D02*
X104180000Y-91375000D01*
G75*
G02*
X104330000Y-91225000I150000J0D01*
G01*
X106080000Y-91225000D01*
G75*
G02*
X106230000Y-91375000I0J-150000D01*
G01*
X106230000Y-91675000D01*
G75*
G02*
X106080000Y-91825000I-150000J0D01*
G01*
X104330000Y-91825000D01*
G75*
G02*
X104180000Y-91675000I0J150000D01*
G01*
G37*
%TD.AperFunction*%
%TO.P,U1,8*%
%TO.N,Motor6_In1*%
%TA.AperFunction,SMDPad,CuDef*%
G36*
G01*
X104180000Y-90405000D02*
X104180000Y-90105000D01*
G75*
G02*
X104330000Y-89955000I150000J0D01*
G01*
X106080000Y-89955000D01*
G75*
G02*
X106230000Y-90105000I0J-150000D01*
G01*
X106230000Y-90405000D01*
G75*
G02*
X106080000Y-90555000I-150000J0D01*
G01*
X104330000Y-90555000D01*
G75*
G02*
X104180000Y-90405000I0J150000D01*
G01*
G37*
%TD.AperFunction*%
%TO.P,U1,7*%
%TO.N,Motor6_In2*%
%TA.AperFunction,SMDPad,CuDef*%
G36*
G01*
X104180000Y-89135000D02*
X104180000Y-88835000D01*
G75*
G02*
X104330000Y-88685000I150000J0D01*
G01*
X106080000Y-88685000D01*
G75*
G02*
X106230000Y-88835000I0J-150000D01*
G01*
X106230000Y-89135000D01*
G75*
G02*
X106080000Y-89285000I-150000J0D01*
G01*
X104330000Y-89285000D01*
G75*
G02*
X104180000Y-89135000I0J150000D01*
G01*
G37*
%TD.AperFunction*%
%TO.P,U1,6*%
%TO.N,RC_IN1*%
%TA.AperFunction,SMDPad,CuDef*%
G36*
G01*
X104180000Y-87865000D02*
X104180000Y-87565000D01*
G75*
G02*
X104330000Y-87415000I150000J0D01*
G01*
X106080000Y-87415000D01*
G75*
G02*
X106230000Y-87565000I0J-150000D01*
G01*
X106230000Y-87865000D01*
G75*
G02*
X106080000Y-88015000I-150000J0D01*
G01*
X104330000Y-88015000D01*
G75*
G02*
X104180000Y-87865000I0J150000D01*
G01*
G37*
%TD.AperFunction*%
%TO.P,U1,5*%
%TO.N,RC_IN2*%
%TA.AperFunction,SMDPad,CuDef*%
G36*
G01*
X104180000Y-86595000D02*
X104180000Y-86295000D01*
G75*
G02*
X104330000Y-86145000I150000J0D01*
G01*
X106080000Y-86145000D01*
G75*
G02*
X106230000Y-86295000I0J-150000D01*
G01*
X106230000Y-86595000D01*
G75*
G02*
X106080000Y-86745000I-150000J0D01*
G01*
X104330000Y-86745000D01*
G75*
G02*
X104180000Y-86595000I0J150000D01*
G01*
G37*
%TD.AperFunction*%
%TO.P,U1,4*%
%TO.N,Input3*%
%TA.AperFunction,SMDPad,CuDef*%
G36*
G01*
X104180000Y-85325000D02*
X104180000Y-85025000D01*
G75*
G02*
X104330000Y-84875000I150000J0D01*
G01*
X106080000Y-84875000D01*
G75*
G02*
X106230000Y-85025000I0J-150000D01*
G01*
X106230000Y-85325000D01*
G75*
G02*
X106080000Y-85475000I-150000J0D01*
G01*
X104330000Y-85475000D01*
G75*
G02*
X104180000Y-85325000I0J150000D01*
G01*
G37*
%TD.AperFunction*%
%TO.P,U1,3*%
%TO.N,Input2*%
%TA.AperFunction,SMDPad,CuDef*%
G36*
G01*
X104180000Y-84055000D02*
X104180000Y-83755000D01*
G75*
G02*
X104330000Y-83605000I150000J0D01*
G01*
X106080000Y-83605000D01*
G75*
G02*
X106230000Y-83755000I0J-150000D01*
G01*
X106230000Y-84055000D01*
G75*
G02*
X106080000Y-84205000I-150000J0D01*
G01*
X104330000Y-84205000D01*
G75*
G02*
X104180000Y-84055000I0J150000D01*
G01*
G37*
%TD.AperFunction*%
%TO.P,U1,2*%
%TO.N,Input1*%
%TA.AperFunction,SMDPad,CuDef*%
G36*
G01*
X104180000Y-82785000D02*
X104180000Y-82485000D01*
G75*
G02*
X104330000Y-82335000I150000J0D01*
G01*
X106080000Y-82335000D01*
G75*
G02*
X106230000Y-82485000I0J-150000D01*
G01*
X106230000Y-82785000D01*
G75*
G02*
X106080000Y-82935000I-150000J0D01*
G01*
X104330000Y-82935000D01*
G75*
G02*
X104180000Y-82785000I0J150000D01*
G01*
G37*
%TD.AperFunction*%
%TO.P,U1,1*%
%TO.N,+5V*%
%TA.AperFunction,SMDPad,CuDef*%
G36*
G01*
X104180000Y-81515000D02*
X104180000Y-81215000D01*
G75*
G02*
X104330000Y-81065000I150000J0D01*
G01*
X106080000Y-81065000D01*
G75*
G02*
X106230000Y-81215000I0J-150000D01*
G01*
X106230000Y-81515000D01*
G75*
G02*
X106080000Y-81665000I-150000J0D01*
G01*
X104330000Y-81665000D01*
G75*
G02*
X104180000Y-81515000I0J150000D01*
G01*
G37*
%TD.AperFunction*%
%TD*%
%TO.P,C1,2*%
%TO.N,GND*%
%TA.AperFunction,SMDPad,CuDef*%
G36*
G01*
X106704100Y-79630601D02*
X106704100Y-78330599D01*
G75*
G02*
X106954099Y-78080600I249999J0D01*
G01*
X107779101Y-78080600D01*
G75*
G02*
X108029100Y-78330599I0J-249999D01*
G01*
X108029100Y-79630601D01*
G75*
G02*
X107779101Y-79880600I-249999J0D01*
G01*
X106954099Y-79880600D01*
G75*
G02*
X106704100Y-79630601I0J249999D01*
G01*
G37*
%TD.AperFunction*%
%TO.P,C1,1*%
%TO.N,+5V*%
%TA.AperFunction,SMDPad,CuDef*%
G36*
G01*
X103579100Y-79630601D02*
X103579100Y-78330599D01*
G75*
G02*
X103829099Y-78080600I249999J0D01*
G01*
X104654101Y-78080600D01*
G75*
G02*
X104904100Y-78330599I0J-249999D01*
G01*
X104904100Y-79630601D01*
G75*
G02*
X104654101Y-79880600I-249999J0D01*
G01*
X103829099Y-79880600D01*
G75*
G02*
X103579100Y-79630601I0J249999D01*
G01*
G37*
%TD.AperFunction*%
%TD*%
D15*
%TO.N,GND*%
X107215200Y-89721600D03*
X96080000Y-87725000D03*
X99720400Y-89648600D03*
X112476280Y-89717880D03*
X121630599Y-89738359D03*
%TO.N,+5V*%
X96316800Y-80504600D03*
X105156000Y-80453800D03*
X108689140Y-80383380D03*
%TO.N,UPDI*%
X117449600Y-86803800D03*
X96330400Y-78081000D03*
X109921040Y-86365080D03*
%TO.N,Net-(J2-Pad2)*%
X122582200Y-90534400D03*
%TO.N,Net-(J2-Pad1)*%
X122480600Y-88756400D03*
%TO.N,RC_IN1*%
X103174800Y-87718200D03*
%TO.N,RC_IN2*%
X94996000Y-80504600D03*
X103124000Y-86397400D03*
%TO.N,+12V*%
X117095800Y-88650001D03*
X102897200Y-92947400D03*
X98630000Y-88299200D03*
X111216440Y-81569560D03*
%TO.N,Motor1_In2*%
X117703600Y-85094990D03*
X118313200Y-81469800D03*
%TO.N,Motor2_In1*%
X116179600Y-86092600D03*
X116179600Y-82689000D03*
%TO.N,Net-(J8-Pad2)*%
X97436200Y-89874000D03*
%TO.N,Net-(J8-Pad1)*%
X97230002Y-92109200D03*
%TO.N,Net-(J7-Pad2)*%
X122607600Y-84667000D03*
%TO.N,Net-(J7-Pad1)*%
X124055400Y-81923800D03*
%TD*%
D16*
%TO.N,GND*%
X101220800Y-86495800D02*
X101170000Y-86445000D01*
X96080000Y-87725000D02*
X97360000Y-86445000D01*
X96080000Y-88890000D02*
X96080000Y-87725000D01*
X114505000Y-81365000D02*
X114455000Y-81365000D01*
X113972166Y-81365000D02*
X114505000Y-81365000D01*
X94165000Y-85810000D02*
X96080000Y-87725000D01*
X92915000Y-85810000D02*
X94165000Y-85810000D01*
X99720400Y-86314600D02*
X99900000Y-86135000D01*
X99720400Y-89648600D02*
X99720400Y-86314600D01*
X101170000Y-86135000D02*
X97360000Y-86135000D01*
X107366600Y-78980600D02*
X109982000Y-78980600D01*
X107215200Y-89721600D02*
X107215200Y-87629800D01*
X109982000Y-84863000D02*
X107215200Y-87629800D01*
X122898998Y-87080000D02*
X124030000Y-87080000D01*
X121630599Y-88348399D02*
X122898998Y-87080000D01*
X123584798Y-92795000D02*
X121630599Y-90840801D01*
X124030000Y-92795000D02*
X123584798Y-92795000D01*
X112472560Y-89721600D02*
X112476280Y-89717880D01*
X107215200Y-89721600D02*
X112472560Y-89721600D01*
X121630599Y-89738359D02*
X121630599Y-88348399D01*
X121630599Y-90840801D02*
X121630599Y-89738359D01*
D17*
X118670400Y-79132192D02*
X118670400Y-78831000D01*
X116437592Y-81365000D02*
X118670400Y-79132192D01*
X114505000Y-81365000D02*
X116437592Y-81365000D01*
X109982000Y-81408122D02*
X109982000Y-80258920D01*
X110868439Y-82294561D02*
X109982000Y-81408122D01*
X111564441Y-82294561D02*
X110868439Y-82294561D01*
X112494002Y-81365000D02*
X111564441Y-82294561D01*
X114505000Y-81365000D02*
X112494002Y-81365000D01*
D16*
X109982000Y-80258920D02*
X109982000Y-84863000D01*
X109982000Y-78980600D02*
X109982000Y-80258920D01*
D17*
%TO.N,+5V*%
X94186400Y-82635000D02*
X96316800Y-80504600D01*
X92915000Y-82635000D02*
X94186400Y-82635000D01*
X105156000Y-81316000D02*
X105205000Y-81365000D01*
X105156000Y-80453800D02*
X105156000Y-81316000D01*
X104241600Y-79539400D02*
X105156000Y-80453800D01*
X104241600Y-78980600D02*
X104241600Y-79539400D01*
X108618720Y-80453800D02*
X108689140Y-80383380D01*
X105156000Y-80453800D02*
X108618720Y-80453800D01*
%TO.N,UPDI*%
X114501800Y-86448200D02*
X114505000Y-86445000D01*
X114877601Y-86817601D02*
X117435799Y-86817601D01*
X117435799Y-86817601D02*
X117449600Y-86803800D01*
X114505000Y-86445000D02*
X114877601Y-86817601D01*
X97360000Y-79110600D02*
X96330400Y-78081000D01*
X97360000Y-79135000D02*
X97360000Y-79110600D01*
X110000960Y-86445000D02*
X109921040Y-86365080D01*
X114505000Y-86445000D02*
X110000960Y-86445000D01*
D18*
%TO.N,Net-(J2-Pad2)*%
X123321600Y-89795000D02*
X122582200Y-90534400D01*
X124030000Y-89795000D02*
X123321600Y-89795000D01*
%TO.N,Net-(J2-Pad1)*%
X122519200Y-88795000D02*
X122480600Y-88756400D01*
X124030000Y-88795000D02*
X122519200Y-88795000D01*
%TO.N,Net-(J3-Pad2)*%
X126205000Y-91795000D02*
X126570000Y-92160000D01*
X124030000Y-91795000D02*
X126205000Y-91795000D01*
%TO.N,Net-(J3-Pad1)*%
X124760000Y-90795000D02*
X126570000Y-88985000D01*
X124030000Y-90795000D02*
X124760000Y-90795000D01*
%TO.N,Net-(J4-Pad2)*%
X92915000Y-89250002D02*
X92915000Y-88985000D01*
X95554998Y-91890000D02*
X92915000Y-89250002D01*
X96080000Y-91890000D02*
X95554998Y-91890000D01*
%TO.N,Net-(J4-Pad1)*%
X93645000Y-92890000D02*
X92915000Y-92160000D01*
X96080000Y-92890000D02*
X93645000Y-92890000D01*
D17*
%TO.N,RC_IN1*%
X105201800Y-87718200D02*
X105205000Y-87715000D01*
X103174800Y-87718200D02*
X105201800Y-87718200D01*
%TO.N,RC_IN2*%
X93951400Y-79460000D02*
X94996000Y-80504600D01*
X92915000Y-79460000D02*
X93951400Y-79460000D01*
X105157400Y-86397400D02*
X105205000Y-86445000D01*
X103124000Y-86397400D02*
X105157400Y-86397400D01*
D16*
%TO.N,+12V*%
X117240799Y-88795000D02*
X117095800Y-88650001D01*
X118930000Y-88795000D02*
X117240799Y-88795000D01*
X101237400Y-92947400D02*
X101180000Y-92890000D01*
X102897200Y-92947400D02*
X101237400Y-92947400D01*
X98630000Y-91290000D02*
X98630000Y-88299200D01*
X100230000Y-92890000D02*
X98630000Y-91290000D01*
X101180000Y-92890000D02*
X100230000Y-92890000D01*
X111216440Y-80871160D02*
X113107000Y-78980600D01*
X111216440Y-81569560D02*
X111216440Y-80871160D01*
X119545002Y-83080000D02*
X118930000Y-83080000D01*
X119930001Y-83464999D02*
X119545002Y-83080000D01*
X119930001Y-87794999D02*
X119930001Y-83464999D01*
X118930000Y-88795000D02*
X119930001Y-87794999D01*
D18*
%TO.N,Input3*%
X98630000Y-78825000D02*
X98630000Y-80025000D01*
D17*
X102920000Y-85175000D02*
X105205000Y-85175000D01*
X98630000Y-80885000D02*
X102920000Y-85175000D01*
X98630000Y-79135000D02*
X98630000Y-80885000D01*
D18*
%TO.N,Input2*%
X99900000Y-78825000D02*
X99900000Y-80025000D01*
D17*
X102920000Y-83905000D02*
X105205000Y-83905000D01*
X99900000Y-80885000D02*
X102920000Y-83905000D01*
X99900000Y-79135000D02*
X99900000Y-80885000D01*
%TO.N,Input1*%
X104670000Y-82635000D02*
X105205000Y-82635000D01*
X101170000Y-79135000D02*
X104670000Y-82635000D01*
%TO.N,Motor1_In1*%
X118635000Y-84080000D02*
X118930000Y-84080000D01*
X118755000Y-83905000D02*
X118930000Y-84080000D01*
X116904601Y-83741999D02*
X116904601Y-81534401D01*
X116741600Y-83905000D02*
X116904601Y-83741999D01*
X114505000Y-83905000D02*
X116741600Y-83905000D01*
X116741600Y-83905000D02*
X118755000Y-83905000D01*
X120035399Y-80006001D02*
X121210400Y-78831000D01*
X118433001Y-80006001D02*
X120035399Y-80006001D01*
X116904601Y-81534401D02*
X118433001Y-80006001D01*
%TO.N,Motor1_In2*%
X118635000Y-85080000D02*
X118930000Y-85080000D01*
X118835000Y-85175000D02*
X118930000Y-85080000D01*
X117706800Y-85098190D02*
X117703600Y-85094990D01*
X117706800Y-85175000D02*
X117706800Y-85098190D01*
X114505000Y-85175000D02*
X117706800Y-85175000D01*
X117706800Y-85175000D02*
X118835000Y-85175000D01*
X122949402Y-78831000D02*
X123750400Y-78831000D01*
X120310602Y-81469800D02*
X122949402Y-78831000D01*
X118313200Y-81469800D02*
X120310602Y-81469800D01*
%TO.N,Motor2_In1*%
X118891800Y-86041800D02*
X118930000Y-86080000D01*
X116452210Y-85819990D02*
X116179600Y-86092600D01*
X118669990Y-85819990D02*
X116452210Y-85819990D01*
X118930000Y-86080000D02*
X118669990Y-85819990D01*
X114559000Y-82689000D02*
X114505000Y-82635000D01*
X116179600Y-82689000D02*
X114559000Y-82689000D01*
%TO.N,Motor2_In2*%
X118295000Y-87715000D02*
X118930000Y-87080000D01*
X114505000Y-87715000D02*
X118295000Y-87715000D01*
%TO.N,Motor3_In1*%
X118510001Y-89375001D02*
X118930000Y-89795000D01*
X114895001Y-89375001D02*
X118510001Y-89375001D01*
X114505000Y-88985000D02*
X114895001Y-89375001D01*
%TO.N,Motor3_In2*%
X115045000Y-90795000D02*
X118930000Y-90795000D01*
X114505000Y-90255000D02*
X115045000Y-90795000D01*
%TO.N,Motor4_In1*%
X118660000Y-91525000D02*
X118930000Y-91795000D01*
X114505000Y-91525000D02*
X118660000Y-91525000D01*
%TO.N,Motor4_In2*%
X114505000Y-92795000D02*
X118930000Y-92795000D01*
%TO.N,Motor5_In1*%
X103275000Y-91890000D02*
X101180000Y-91890000D01*
X104180000Y-92795000D02*
X103275000Y-91890000D01*
X105205000Y-92795000D02*
X104180000Y-92795000D01*
%TO.N,Motor5_In2*%
X104570000Y-90890000D02*
X101180000Y-90890000D01*
X105205000Y-91525000D02*
X104570000Y-90890000D01*
%TO.N,Motor6_In1*%
X101545000Y-90255000D02*
X101180000Y-89890000D01*
X105205000Y-90255000D02*
X101545000Y-90255000D01*
%TO.N,Motor6_In2*%
X101275000Y-88985000D02*
X101180000Y-88890000D01*
X105205000Y-88985000D02*
X101275000Y-88985000D01*
D18*
%TO.N,Net-(J8-Pad2)*%
X97420200Y-89890000D02*
X97436200Y-89874000D01*
X96080000Y-89890000D02*
X97420200Y-89890000D01*
%TO.N,Net-(J8-Pad1)*%
X97030000Y-90890000D02*
X97230002Y-91090002D01*
X97230002Y-91090002D02*
X97230002Y-92109200D01*
X96080000Y-90890000D02*
X97030000Y-90890000D01*
%TO.N,Net-(J7-Pad2)*%
X123194600Y-84080000D02*
X122607600Y-84667000D01*
X124030000Y-84080000D02*
X123194600Y-84080000D01*
%TO.N,Net-(J7-Pad1)*%
X124030000Y-81949200D02*
X124055400Y-81923800D01*
X124030000Y-83080000D02*
X124030000Y-81949200D01*
%TO.N,Net-(J9-Pad2)*%
X126300000Y-86080000D02*
X126570000Y-85810000D01*
X124030000Y-86080000D02*
X126300000Y-86080000D01*
%TO.N,Net-(J9-Pad1)*%
X124030000Y-85080000D02*
X124426799Y-85080000D01*
X126570000Y-82936799D02*
X126570000Y-82635000D01*
X124426799Y-85080000D02*
X126570000Y-82936799D01*
%TD*%
M02*
