%TF.GenerationSoftware,KiCad,Pcbnew,(5.1.9)-1*%
%TF.CreationDate,2021-01-25T19:02:33+00:00*%
%TF.ProjectId,RC-DC-Motor_Splitter,52432d44-432d-44d6-9f74-6f725f53706c,rev?*%
%TF.SameCoordinates,Original*%
%TF.FileFunction,Copper,L2,Bot*%
%TF.FilePolarity,Positive*%
%FSLAX46Y46*%
G04 Gerber Fmt 4.6, Leading zero omitted, Abs format (unit mm)*
G04 Created by KiCad (PCBNEW (5.1.9)-1) date 2021-01-25 19:02:33*
%MOMM*%
%LPD*%
G01*
G04 APERTURE LIST*
%TA.AperFunction,ComponentPad*%
%ADD10O,1.700000X1.700000*%
%TD*%
%TA.AperFunction,ComponentPad*%
%ADD11R,1.700000X1.700000*%
%TD*%
%TA.AperFunction,SMDPad,CuDef*%
%ADD12R,2.540000X2.000000*%
%TD*%
%TA.AperFunction,ViaPad*%
%ADD13C,0.800000*%
%TD*%
%TA.AperFunction,Conductor*%
%ADD14C,0.500000*%
%TD*%
%TA.AperFunction,Conductor*%
%ADD15C,0.250000*%
%TD*%
%TA.AperFunction,Conductor*%
%ADD16C,0.400000*%
%TD*%
G04 APERTURE END LIST*
D10*
%TO.P,J1,5*%
%TO.N,UPDI*%
X126290400Y-78831000D03*
%TO.P,J1,4*%
%TO.N,Motor1_In2*%
X123750400Y-78831000D03*
%TO.P,J1,3*%
%TO.N,Motor1_In1*%
X121210400Y-78831000D03*
%TO.P,J1,2*%
%TO.N,GND*%
X118670400Y-78831000D03*
D11*
%TO.P,J1,1*%
%TO.N,+5V*%
X116130400Y-78831000D03*
%TD*%
D12*
%TO.P,J6,1*%
%TO.N,RC_IN1*%
X92915000Y-79460000D03*
%TD*%
%TO.P,J10,2*%
%TO.N,GND*%
X92915000Y-85810000D03*
%TO.P,J10,1*%
%TO.N,+12V*%
X92915000Y-82635000D03*
%TD*%
%TO.P,J7,2*%
%TO.N,Net-(J7-Pad2)*%
X126570000Y-85810000D03*
%TO.P,J7,1*%
%TO.N,Net-(J7-Pad1)*%
X126570000Y-82635000D03*
%TD*%
%TO.P,J2,2*%
%TO.N,Net-(J2-Pad2)*%
X126570000Y-92160000D03*
%TO.P,J2,1*%
%TO.N,Net-(J2-Pad1)*%
X126570000Y-88985000D03*
%TD*%
%TO.P,J8,2*%
%TO.N,Net-(J8-Pad2)*%
X92915000Y-88985000D03*
%TO.P,J8,1*%
%TO.N,Net-(J8-Pad1)*%
X92915000Y-92160000D03*
%TD*%
D13*
%TO.N,GND*%
X107215200Y-89721600D03*
X96080000Y-87725000D03*
X99720400Y-89648600D03*
X112476280Y-89717880D03*
X121630599Y-89738359D03*
%TO.N,+5V*%
X96316800Y-80504600D03*
X105156000Y-80453800D03*
X108689140Y-80383380D03*
%TO.N,UPDI*%
X117449600Y-86803800D03*
X96330400Y-78081000D03*
X109921040Y-86365080D03*
%TO.N,Net-(J2-Pad2)*%
X122582200Y-90534400D03*
%TO.N,Net-(J2-Pad1)*%
X122480600Y-88756400D03*
%TO.N,RC_IN1*%
X103174800Y-87718200D03*
%TO.N,RC_IN2*%
X94996000Y-80504600D03*
X103124000Y-86397400D03*
%TO.N,+12V*%
X117095800Y-88650001D03*
X102897200Y-92947400D03*
X98630000Y-88299200D03*
X111216440Y-81569560D03*
%TO.N,Motor1_In2*%
X117703600Y-85094990D03*
X118313200Y-81469800D03*
%TO.N,Motor2_In1*%
X116179600Y-86092600D03*
X116179600Y-82689000D03*
%TO.N,Net-(J8-Pad2)*%
X97436200Y-89874000D03*
%TO.N,Net-(J8-Pad1)*%
X97230002Y-92109200D03*
%TO.N,Net-(J7-Pad2)*%
X122607600Y-84667000D03*
%TO.N,Net-(J7-Pad1)*%
X124055400Y-81923800D03*
%TD*%
D14*
%TO.N,GND*%
X94165000Y-85810000D02*
X96080000Y-87725000D01*
X92915000Y-85810000D02*
X94165000Y-85810000D01*
X99793400Y-89721600D02*
X99720400Y-89648600D01*
X107215200Y-89721600D02*
X99793400Y-89721600D01*
X121610120Y-89717880D02*
X121630599Y-89738359D01*
X112476280Y-89717880D02*
X121610120Y-89717880D01*
D15*
%TO.N,+5V*%
X105105200Y-80504600D02*
X105156000Y-80453800D01*
X96316800Y-80504600D02*
X105105200Y-80504600D01*
X114578020Y-80383380D02*
X116130400Y-78831000D01*
X108689140Y-80383380D02*
X114578020Y-80383380D01*
%TO.N,UPDI*%
X125422400Y-78831000D02*
X126290400Y-78831000D01*
X117449600Y-86803800D02*
X125422400Y-78831000D01*
X96330400Y-78081000D02*
X104330400Y-78081000D01*
X109921040Y-83671640D02*
X104330400Y-78081000D01*
X109921040Y-86365080D02*
X109921040Y-83671640D01*
D16*
%TO.N,Net-(J2-Pad2)*%
X124207800Y-92160000D02*
X126570000Y-92160000D01*
X122582200Y-90534400D02*
X124207800Y-92160000D01*
%TO.N,Net-(J2-Pad1)*%
X126341400Y-88756400D02*
X126570000Y-88985000D01*
X122480600Y-88756400D02*
X126341400Y-88756400D01*
%TO.N,RC_IN1*%
X92915000Y-79460000D02*
X92889600Y-79485400D01*
X92889600Y-79485400D02*
X93423000Y-79485400D01*
D15*
X101173200Y-87718200D02*
X103174800Y-87718200D01*
X92915000Y-79460000D02*
X101173200Y-87718200D01*
%TO.N,RC_IN2*%
X100888800Y-86397400D02*
X103124000Y-86397400D01*
X94996000Y-80504600D02*
X100888800Y-86397400D01*
D14*
%TO.N,+12V*%
X117095800Y-88650001D02*
X111258599Y-88650001D01*
X106961200Y-92947400D02*
X102897200Y-92947400D01*
X111258599Y-88650001D02*
X106961200Y-92947400D01*
X93531485Y-82635000D02*
X92915000Y-82635000D01*
X98630000Y-87733515D02*
X93531485Y-82635000D01*
X98630000Y-88299200D02*
X98630000Y-87733515D01*
X111258599Y-81611719D02*
X111216440Y-81569560D01*
X111258599Y-88650001D02*
X111258599Y-81611719D01*
D15*
%TO.N,Motor1_In2*%
X117703600Y-82079400D02*
X118313200Y-81469800D01*
X117703600Y-85094990D02*
X117703600Y-82079400D01*
%TO.N,Motor2_In1*%
X116179600Y-86092600D02*
X116179600Y-82689000D01*
D16*
%TO.N,Net-(J8-Pad2)*%
X96547200Y-88985000D02*
X92915000Y-88985000D01*
X97436200Y-89874000D02*
X96547200Y-88985000D01*
%TO.N,Net-(J8-Pad1)*%
X92965800Y-92109200D02*
X92915000Y-92160000D01*
X97230002Y-92109200D02*
X92965800Y-92109200D01*
%TO.N,Net-(J7-Pad2)*%
X123750600Y-85810000D02*
X126570000Y-85810000D01*
X122607600Y-84667000D02*
X123750600Y-85810000D01*
%TO.N,Net-(J7-Pad1)*%
X125858800Y-81923800D02*
X126570000Y-82635000D01*
X124055400Y-81923800D02*
X125858800Y-81923800D01*
%TD*%
M02*
