%TF.GenerationSoftware,KiCad,Pcbnew,(5.1.9)-1*%
%TF.CreationDate,2021-01-23T19:14:43+00:00*%
%TF.ProjectId,RC-DC-Motor_Splitter,52432d44-432d-44d6-9f74-6f725f53706c,rev?*%
%TF.SameCoordinates,Original*%
%TF.FileFunction,Copper,L1,Top*%
%TF.FilePolarity,Positive*%
%FSLAX46Y46*%
G04 Gerber Fmt 4.6, Leading zero omitted, Abs format (unit mm)*
G04 Created by KiCad (PCBNEW (5.1.9)-1) date 2021-01-23 19:14:43*
%MOMM*%
%LPD*%
G01*
G04 APERTURE LIST*
%TA.AperFunction,SMDPad,CuDef*%
%ADD10R,2.540000X2.000000*%
%TD*%
%TA.AperFunction,SMDPad,CuDef*%
%ADD11R,0.760000X1.600000*%
%TD*%
%TA.AperFunction,SMDPad,CuDef*%
%ADD12R,1.100000X0.510000*%
%TD*%
%TA.AperFunction,ViaPad*%
%ADD13C,0.800000*%
%TD*%
%TA.AperFunction,Conductor*%
%ADD14C,0.400000*%
%TD*%
%TA.AperFunction,Conductor*%
%ADD15C,0.250000*%
%TD*%
G04 APERTURE END LIST*
D10*
%TO.P,J11,1*%
%TO.N,RC_IN2*%
X94615000Y-80010000D03*
%TD*%
%TO.P,J1,1*%
%TO.N,UPDI*%
X128270000Y-80645000D03*
%TD*%
%TO.P,J5,2*%
%TO.N,GND*%
X94615000Y-86360000D03*
%TO.P,J5,1*%
%TO.N,+5V*%
X94615000Y-83185000D03*
%TD*%
%TO.P,J9,2*%
%TO.N,Net-(J9-Pad2)*%
X128270000Y-86360000D03*
%TO.P,J9,1*%
%TO.N,Net-(J9-Pad1)*%
X128270000Y-83185000D03*
%TD*%
%TO.P,J3,2*%
%TO.N,Net-(J3-Pad2)*%
X128270000Y-92710000D03*
%TO.P,J3,1*%
%TO.N,Net-(J3-Pad1)*%
X128270000Y-89535000D03*
%TD*%
%TO.P,J4,2*%
%TO.N,Net-(J4-Pad2)*%
X94615000Y-89535000D03*
%TO.P,J4,1*%
%TO.N,Net-(J4-Pad1)*%
X94615000Y-92710000D03*
%TD*%
D11*
%TO.P,SW1,8*%
%TO.N,GND*%
X102870000Y-86995000D03*
%TO.P,SW1,4*%
%TO.N,UPDI*%
X99060000Y-79375000D03*
%TO.P,SW1,7*%
%TO.N,GND*%
X101600000Y-86995000D03*
%TO.P,SW1,3*%
%TO.N,Input3*%
X100330000Y-79375000D03*
%TO.P,SW1,6*%
%TO.N,GND*%
X100330000Y-86995000D03*
%TO.P,SW1,2*%
%TO.N,Input2*%
X101600000Y-79375000D03*
%TO.P,SW1,5*%
%TO.N,GND*%
X99060000Y-86995000D03*
%TO.P,SW1,1*%
%TO.N,Input1*%
X102870000Y-79375000D03*
%TD*%
D12*
%TO.P,U4,10*%
%TO.N,Net-(J4-Pad1)*%
X97780000Y-93440000D03*
%TO.P,U4,9*%
%TO.N,Net-(J4-Pad2)*%
X97780000Y-92440000D03*
%TO.P,U4,5*%
%TO.N,Motor6_In2*%
X102880000Y-89440000D03*
%TO.P,U4,8*%
%TO.N,Net-(J8-Pad1)*%
X97780000Y-91440000D03*
%TO.P,U4,7*%
%TO.N,Net-(J8-Pad2)*%
X97780000Y-90440000D03*
%TO.P,U4,6*%
%TO.N,GND*%
X97780000Y-89440000D03*
%TO.P,U4,4*%
%TO.N,Motor6_In1*%
X102880000Y-90440000D03*
%TO.P,U4,3*%
%TO.N,Motor5_In2*%
X102880000Y-91440000D03*
%TO.P,U4,2*%
%TO.N,Motor5_In1*%
X102880000Y-92440000D03*
%TO.P,U4,1*%
%TO.N,+12V*%
X102880000Y-93440000D03*
%TD*%
%TO.P,U3,10*%
%TO.N,Net-(J2-Pad1)*%
X125730000Y-89345000D03*
%TO.P,U3,9*%
%TO.N,Net-(J2-Pad2)*%
X125730000Y-90345000D03*
%TO.P,U3,5*%
%TO.N,Motor4_In2*%
X120630000Y-93345000D03*
%TO.P,U3,8*%
%TO.N,Net-(J3-Pad1)*%
X125730000Y-91345000D03*
%TO.P,U3,7*%
%TO.N,Net-(J3-Pad2)*%
X125730000Y-92345000D03*
%TO.P,U3,6*%
%TO.N,GND*%
X125730000Y-93345000D03*
%TO.P,U3,4*%
%TO.N,Motor4_In1*%
X120630000Y-92345000D03*
%TO.P,U3,3*%
%TO.N,Motor3_In2*%
X120630000Y-91345000D03*
%TO.P,U3,2*%
%TO.N,Motor3_In1*%
X120630000Y-90345000D03*
%TO.P,U3,1*%
%TO.N,+12V*%
X120630000Y-89345000D03*
%TD*%
%TO.P,U2,10*%
%TO.N,Net-(J7-Pad1)*%
X125730000Y-83630000D03*
%TO.P,U2,9*%
%TO.N,Net-(J7-Pad2)*%
X125730000Y-84630000D03*
%TO.P,U2,5*%
%TO.N,Motor2_In2*%
X120630000Y-87630000D03*
%TO.P,U2,8*%
%TO.N,Net-(J9-Pad1)*%
X125730000Y-85630000D03*
%TO.P,U2,7*%
%TO.N,Net-(J9-Pad2)*%
X125730000Y-86630000D03*
%TO.P,U2,6*%
%TO.N,GND*%
X125730000Y-87630000D03*
%TO.P,U2,4*%
%TO.N,Motor2_In1*%
X120630000Y-86630000D03*
%TO.P,U2,3*%
%TO.N,Motor1_In2*%
X120630000Y-85630000D03*
%TO.P,U2,2*%
%TO.N,Motor1_In1*%
X120630000Y-84630000D03*
%TO.P,U2,1*%
%TO.N,+12V*%
X120630000Y-83630000D03*
%TD*%
%TO.P,U1,20*%
%TO.N,GND*%
%TA.AperFunction,SMDPad,CuDef*%
G36*
G01*
X115180000Y-82065000D02*
X115180000Y-81765000D01*
G75*
G02*
X115330000Y-81615000I150000J0D01*
G01*
X117080000Y-81615000D01*
G75*
G02*
X117230000Y-81765000I0J-150000D01*
G01*
X117230000Y-82065000D01*
G75*
G02*
X117080000Y-82215000I-150000J0D01*
G01*
X115330000Y-82215000D01*
G75*
G02*
X115180000Y-82065000I0J150000D01*
G01*
G37*
%TD.AperFunction*%
%TO.P,U1,19*%
%TO.N,Motor1_In1*%
%TA.AperFunction,SMDPad,CuDef*%
G36*
G01*
X115180000Y-83335000D02*
X115180000Y-83035000D01*
G75*
G02*
X115330000Y-82885000I150000J0D01*
G01*
X117080000Y-82885000D01*
G75*
G02*
X117230000Y-83035000I0J-150000D01*
G01*
X117230000Y-83335000D01*
G75*
G02*
X117080000Y-83485000I-150000J0D01*
G01*
X115330000Y-83485000D01*
G75*
G02*
X115180000Y-83335000I0J150000D01*
G01*
G37*
%TD.AperFunction*%
%TO.P,U1,18*%
%TO.N,Motor1_In2*%
%TA.AperFunction,SMDPad,CuDef*%
G36*
G01*
X115180000Y-84605000D02*
X115180000Y-84305000D01*
G75*
G02*
X115330000Y-84155000I150000J0D01*
G01*
X117080000Y-84155000D01*
G75*
G02*
X117230000Y-84305000I0J-150000D01*
G01*
X117230000Y-84605000D01*
G75*
G02*
X117080000Y-84755000I-150000J0D01*
G01*
X115330000Y-84755000D01*
G75*
G02*
X115180000Y-84605000I0J150000D01*
G01*
G37*
%TD.AperFunction*%
%TO.P,U1,17*%
%TO.N,Motor2_In1*%
%TA.AperFunction,SMDPad,CuDef*%
G36*
G01*
X115180000Y-85875000D02*
X115180000Y-85575000D01*
G75*
G02*
X115330000Y-85425000I150000J0D01*
G01*
X117080000Y-85425000D01*
G75*
G02*
X117230000Y-85575000I0J-150000D01*
G01*
X117230000Y-85875000D01*
G75*
G02*
X117080000Y-86025000I-150000J0D01*
G01*
X115330000Y-86025000D01*
G75*
G02*
X115180000Y-85875000I0J150000D01*
G01*
G37*
%TD.AperFunction*%
%TO.P,U1,16*%
%TO.N,UPDI*%
%TA.AperFunction,SMDPad,CuDef*%
G36*
G01*
X115180000Y-87145000D02*
X115180000Y-86845000D01*
G75*
G02*
X115330000Y-86695000I150000J0D01*
G01*
X117080000Y-86695000D01*
G75*
G02*
X117230000Y-86845000I0J-150000D01*
G01*
X117230000Y-87145000D01*
G75*
G02*
X117080000Y-87295000I-150000J0D01*
G01*
X115330000Y-87295000D01*
G75*
G02*
X115180000Y-87145000I0J150000D01*
G01*
G37*
%TD.AperFunction*%
%TO.P,U1,15*%
%TO.N,Motor2_In2*%
%TA.AperFunction,SMDPad,CuDef*%
G36*
G01*
X115180000Y-88415000D02*
X115180000Y-88115000D01*
G75*
G02*
X115330000Y-87965000I150000J0D01*
G01*
X117080000Y-87965000D01*
G75*
G02*
X117230000Y-88115000I0J-150000D01*
G01*
X117230000Y-88415000D01*
G75*
G02*
X117080000Y-88565000I-150000J0D01*
G01*
X115330000Y-88565000D01*
G75*
G02*
X115180000Y-88415000I0J150000D01*
G01*
G37*
%TD.AperFunction*%
%TO.P,U1,14*%
%TO.N,Motor3_In1*%
%TA.AperFunction,SMDPad,CuDef*%
G36*
G01*
X115180000Y-89685000D02*
X115180000Y-89385000D01*
G75*
G02*
X115330000Y-89235000I150000J0D01*
G01*
X117080000Y-89235000D01*
G75*
G02*
X117230000Y-89385000I0J-150000D01*
G01*
X117230000Y-89685000D01*
G75*
G02*
X117080000Y-89835000I-150000J0D01*
G01*
X115330000Y-89835000D01*
G75*
G02*
X115180000Y-89685000I0J150000D01*
G01*
G37*
%TD.AperFunction*%
%TO.P,U1,13*%
%TO.N,Motor3_In2*%
%TA.AperFunction,SMDPad,CuDef*%
G36*
G01*
X115180000Y-90955000D02*
X115180000Y-90655000D01*
G75*
G02*
X115330000Y-90505000I150000J0D01*
G01*
X117080000Y-90505000D01*
G75*
G02*
X117230000Y-90655000I0J-150000D01*
G01*
X117230000Y-90955000D01*
G75*
G02*
X117080000Y-91105000I-150000J0D01*
G01*
X115330000Y-91105000D01*
G75*
G02*
X115180000Y-90955000I0J150000D01*
G01*
G37*
%TD.AperFunction*%
%TO.P,U1,12*%
%TO.N,Motor4_In1*%
%TA.AperFunction,SMDPad,CuDef*%
G36*
G01*
X115180000Y-92225000D02*
X115180000Y-91925000D01*
G75*
G02*
X115330000Y-91775000I150000J0D01*
G01*
X117080000Y-91775000D01*
G75*
G02*
X117230000Y-91925000I0J-150000D01*
G01*
X117230000Y-92225000D01*
G75*
G02*
X117080000Y-92375000I-150000J0D01*
G01*
X115330000Y-92375000D01*
G75*
G02*
X115180000Y-92225000I0J150000D01*
G01*
G37*
%TD.AperFunction*%
%TO.P,U1,11*%
%TO.N,Motor4_In2*%
%TA.AperFunction,SMDPad,CuDef*%
G36*
G01*
X115180000Y-93495000D02*
X115180000Y-93195000D01*
G75*
G02*
X115330000Y-93045000I150000J0D01*
G01*
X117080000Y-93045000D01*
G75*
G02*
X117230000Y-93195000I0J-150000D01*
G01*
X117230000Y-93495000D01*
G75*
G02*
X117080000Y-93645000I-150000J0D01*
G01*
X115330000Y-93645000D01*
G75*
G02*
X115180000Y-93495000I0J150000D01*
G01*
G37*
%TD.AperFunction*%
%TO.P,U1,10*%
%TO.N,Motor5_In1*%
%TA.AperFunction,SMDPad,CuDef*%
G36*
G01*
X105880000Y-93495000D02*
X105880000Y-93195000D01*
G75*
G02*
X106030000Y-93045000I150000J0D01*
G01*
X107780000Y-93045000D01*
G75*
G02*
X107930000Y-93195000I0J-150000D01*
G01*
X107930000Y-93495000D01*
G75*
G02*
X107780000Y-93645000I-150000J0D01*
G01*
X106030000Y-93645000D01*
G75*
G02*
X105880000Y-93495000I0J150000D01*
G01*
G37*
%TD.AperFunction*%
%TO.P,U1,9*%
%TO.N,Motor5_In2*%
%TA.AperFunction,SMDPad,CuDef*%
G36*
G01*
X105880000Y-92225000D02*
X105880000Y-91925000D01*
G75*
G02*
X106030000Y-91775000I150000J0D01*
G01*
X107780000Y-91775000D01*
G75*
G02*
X107930000Y-91925000I0J-150000D01*
G01*
X107930000Y-92225000D01*
G75*
G02*
X107780000Y-92375000I-150000J0D01*
G01*
X106030000Y-92375000D01*
G75*
G02*
X105880000Y-92225000I0J150000D01*
G01*
G37*
%TD.AperFunction*%
%TO.P,U1,8*%
%TO.N,Motor6_In1*%
%TA.AperFunction,SMDPad,CuDef*%
G36*
G01*
X105880000Y-90955000D02*
X105880000Y-90655000D01*
G75*
G02*
X106030000Y-90505000I150000J0D01*
G01*
X107780000Y-90505000D01*
G75*
G02*
X107930000Y-90655000I0J-150000D01*
G01*
X107930000Y-90955000D01*
G75*
G02*
X107780000Y-91105000I-150000J0D01*
G01*
X106030000Y-91105000D01*
G75*
G02*
X105880000Y-90955000I0J150000D01*
G01*
G37*
%TD.AperFunction*%
%TO.P,U1,7*%
%TO.N,Motor6_In2*%
%TA.AperFunction,SMDPad,CuDef*%
G36*
G01*
X105880000Y-89685000D02*
X105880000Y-89385000D01*
G75*
G02*
X106030000Y-89235000I150000J0D01*
G01*
X107780000Y-89235000D01*
G75*
G02*
X107930000Y-89385000I0J-150000D01*
G01*
X107930000Y-89685000D01*
G75*
G02*
X107780000Y-89835000I-150000J0D01*
G01*
X106030000Y-89835000D01*
G75*
G02*
X105880000Y-89685000I0J150000D01*
G01*
G37*
%TD.AperFunction*%
%TO.P,U1,6*%
%TO.N,RC_IN1*%
%TA.AperFunction,SMDPad,CuDef*%
G36*
G01*
X105880000Y-88415000D02*
X105880000Y-88115000D01*
G75*
G02*
X106030000Y-87965000I150000J0D01*
G01*
X107780000Y-87965000D01*
G75*
G02*
X107930000Y-88115000I0J-150000D01*
G01*
X107930000Y-88415000D01*
G75*
G02*
X107780000Y-88565000I-150000J0D01*
G01*
X106030000Y-88565000D01*
G75*
G02*
X105880000Y-88415000I0J150000D01*
G01*
G37*
%TD.AperFunction*%
%TO.P,U1,5*%
%TO.N,RC_IN2*%
%TA.AperFunction,SMDPad,CuDef*%
G36*
G01*
X105880000Y-87145000D02*
X105880000Y-86845000D01*
G75*
G02*
X106030000Y-86695000I150000J0D01*
G01*
X107780000Y-86695000D01*
G75*
G02*
X107930000Y-86845000I0J-150000D01*
G01*
X107930000Y-87145000D01*
G75*
G02*
X107780000Y-87295000I-150000J0D01*
G01*
X106030000Y-87295000D01*
G75*
G02*
X105880000Y-87145000I0J150000D01*
G01*
G37*
%TD.AperFunction*%
%TO.P,U1,4*%
%TO.N,Input3*%
%TA.AperFunction,SMDPad,CuDef*%
G36*
G01*
X105880000Y-85875000D02*
X105880000Y-85575000D01*
G75*
G02*
X106030000Y-85425000I150000J0D01*
G01*
X107780000Y-85425000D01*
G75*
G02*
X107930000Y-85575000I0J-150000D01*
G01*
X107930000Y-85875000D01*
G75*
G02*
X107780000Y-86025000I-150000J0D01*
G01*
X106030000Y-86025000D01*
G75*
G02*
X105880000Y-85875000I0J150000D01*
G01*
G37*
%TD.AperFunction*%
%TO.P,U1,3*%
%TO.N,Input2*%
%TA.AperFunction,SMDPad,CuDef*%
G36*
G01*
X105880000Y-84605000D02*
X105880000Y-84305000D01*
G75*
G02*
X106030000Y-84155000I150000J0D01*
G01*
X107780000Y-84155000D01*
G75*
G02*
X107930000Y-84305000I0J-150000D01*
G01*
X107930000Y-84605000D01*
G75*
G02*
X107780000Y-84755000I-150000J0D01*
G01*
X106030000Y-84755000D01*
G75*
G02*
X105880000Y-84605000I0J150000D01*
G01*
G37*
%TD.AperFunction*%
%TO.P,U1,2*%
%TO.N,Input1*%
%TA.AperFunction,SMDPad,CuDef*%
G36*
G01*
X105880000Y-83335000D02*
X105880000Y-83035000D01*
G75*
G02*
X106030000Y-82885000I150000J0D01*
G01*
X107780000Y-82885000D01*
G75*
G02*
X107930000Y-83035000I0J-150000D01*
G01*
X107930000Y-83335000D01*
G75*
G02*
X107780000Y-83485000I-150000J0D01*
G01*
X106030000Y-83485000D01*
G75*
G02*
X105880000Y-83335000I0J150000D01*
G01*
G37*
%TD.AperFunction*%
%TO.P,U1,1*%
%TO.N,+5V*%
%TA.AperFunction,SMDPad,CuDef*%
G36*
G01*
X105880000Y-82065000D02*
X105880000Y-81765000D01*
G75*
G02*
X106030000Y-81615000I150000J0D01*
G01*
X107780000Y-81615000D01*
G75*
G02*
X107930000Y-81765000I0J-150000D01*
G01*
X107930000Y-82065000D01*
G75*
G02*
X107780000Y-82215000I-150000J0D01*
G01*
X106030000Y-82215000D01*
G75*
G02*
X105880000Y-82065000I0J150000D01*
G01*
G37*
%TD.AperFunction*%
%TD*%
%TO.P,C1,2*%
%TO.N,GND*%
%TA.AperFunction,SMDPad,CuDef*%
G36*
G01*
X112952500Y-80025001D02*
X112952500Y-78724999D01*
G75*
G02*
X113202499Y-78475000I249999J0D01*
G01*
X114027501Y-78475000D01*
G75*
G02*
X114277500Y-78724999I0J-249999D01*
G01*
X114277500Y-80025001D01*
G75*
G02*
X114027501Y-80275000I-249999J0D01*
G01*
X113202499Y-80275000D01*
G75*
G02*
X112952500Y-80025001I0J249999D01*
G01*
G37*
%TD.AperFunction*%
%TO.P,C1,1*%
%TO.N,+5V*%
%TA.AperFunction,SMDPad,CuDef*%
G36*
G01*
X109827500Y-80025001D02*
X109827500Y-78724999D01*
G75*
G02*
X110077499Y-78475000I249999J0D01*
G01*
X110902501Y-78475000D01*
G75*
G02*
X111152500Y-78724999I0J-249999D01*
G01*
X111152500Y-80025001D01*
G75*
G02*
X110902501Y-80275000I-249999J0D01*
G01*
X110077499Y-80275000D01*
G75*
G02*
X109827500Y-80025001I0J249999D01*
G01*
G37*
%TD.AperFunction*%
%TD*%
D13*
%TO.N,GND*%
X122326400Y-93294200D03*
X113309400Y-93294200D03*
X108915200Y-90271600D03*
X103886000Y-87045800D03*
X96799400Y-86360000D03*
%TO.N,+5V*%
X96748600Y-83159600D03*
X105003600Y-81254600D03*
%TO.N,UPDI*%
X99695000Y-81661000D03*
X113995200Y-87020400D03*
X125780800Y-80772000D03*
%TO.N,Net-(J2-Pad2)*%
X124282200Y-91084400D03*
%TO.N,Net-(J2-Pad1)*%
X124180600Y-89306400D03*
%TO.N,RC_IN1*%
X99669600Y-84582000D03*
%TO.N,+12V*%
X118795800Y-89200001D03*
X104597200Y-93497400D03*
X100330000Y-88849200D03*
%TO.N,Net-(J8-Pad2)*%
X99136200Y-90424000D03*
%TO.N,Net-(J8-Pad1)*%
X98930002Y-92659200D03*
%TO.N,Net-(J7-Pad2)*%
X124307600Y-85217000D03*
%TO.N,Net-(J7-Pad1)*%
X125755400Y-82473800D03*
%TD*%
D14*
%TO.N,GND*%
X124672998Y-87630000D02*
X125730000Y-87630000D01*
X124780000Y-93345000D02*
X123380599Y-91945599D01*
X123380599Y-88922399D02*
X124672998Y-87630000D01*
X123380599Y-91945599D02*
X123380599Y-88922399D01*
X125730000Y-93345000D02*
X124780000Y-93345000D01*
X122377200Y-93345000D02*
X122326400Y-93294200D01*
X125730000Y-93345000D02*
X122377200Y-93345000D01*
X111937800Y-93294200D02*
X108915200Y-90271600D01*
X113309400Y-93294200D02*
X111937800Y-93294200D01*
X102920800Y-87045800D02*
X102870000Y-86995000D01*
X103886000Y-87045800D02*
X102920800Y-87045800D01*
X97780000Y-88275000D02*
X99060000Y-86995000D01*
X97780000Y-89440000D02*
X97780000Y-88275000D01*
X103835200Y-86995000D02*
X103886000Y-87045800D01*
X99060000Y-86995000D02*
X103835200Y-86995000D01*
X98425000Y-86360000D02*
X99060000Y-86995000D01*
X96799400Y-86360000D02*
X98425000Y-86360000D01*
X94615000Y-86360000D02*
X96799400Y-86360000D01*
X116155000Y-81915000D02*
X113615000Y-79375000D01*
X116205000Y-81915000D02*
X116155000Y-81915000D01*
X115672166Y-81915000D02*
X116205000Y-81915000D01*
X108915200Y-88671966D02*
X115672166Y-81915000D01*
X108915200Y-90271600D02*
X108915200Y-88671966D01*
%TO.N,+5V*%
X96723200Y-83185000D02*
X96748600Y-83159600D01*
X94615000Y-83185000D02*
X96723200Y-83185000D01*
X106244600Y-81254600D02*
X106905000Y-81915000D01*
X105003600Y-81254600D02*
X106244600Y-81254600D01*
X107950000Y-81915000D02*
X110490000Y-79375000D01*
X106905000Y-81915000D02*
X107950000Y-81915000D01*
%TO.N,UPDI*%
X99060000Y-81026000D02*
X99695000Y-81661000D01*
X99060000Y-79375000D02*
X99060000Y-81026000D01*
X116179600Y-87020400D02*
X116205000Y-86995000D01*
X113995200Y-87020400D02*
X116179600Y-87020400D01*
X128143000Y-80772000D02*
X128270000Y-80645000D01*
X125780800Y-80772000D02*
X128143000Y-80772000D01*
%TO.N,Net-(J2-Pad2)*%
X125021600Y-90345000D02*
X124282200Y-91084400D01*
X125730000Y-90345000D02*
X125021600Y-90345000D01*
%TO.N,Net-(J2-Pad1)*%
X124219200Y-89345000D02*
X124180600Y-89306400D01*
X125730000Y-89345000D02*
X124219200Y-89345000D01*
%TO.N,Net-(J3-Pad2)*%
X127905000Y-92345000D02*
X128270000Y-92710000D01*
X125730000Y-92345000D02*
X127905000Y-92345000D01*
%TO.N,Net-(J3-Pad1)*%
X126460000Y-91345000D02*
X128270000Y-89535000D01*
X125730000Y-91345000D02*
X126460000Y-91345000D01*
%TO.N,Net-(J4-Pad2)*%
X94615000Y-89800002D02*
X94615000Y-89535000D01*
X97254998Y-92440000D02*
X94615000Y-89800002D01*
X97780000Y-92440000D02*
X97254998Y-92440000D01*
%TO.N,Net-(J4-Pad1)*%
X95345000Y-93440000D02*
X94615000Y-92710000D01*
X97780000Y-93440000D02*
X95345000Y-93440000D01*
%TO.N,RC_IN1*%
X106289202Y-88265000D02*
X106905000Y-88265000D01*
X102606202Y-84582000D02*
X106289202Y-88265000D01*
X99669600Y-84582000D02*
X102606202Y-84582000D01*
%TO.N,RC_IN2*%
X102116858Y-83210400D02*
X105901458Y-86995000D01*
X105901458Y-86995000D02*
X106905000Y-86995000D01*
X99485400Y-83210400D02*
X102116858Y-83210400D01*
X96285000Y-80010000D02*
X99485400Y-83210400D01*
X94615000Y-80010000D02*
X96285000Y-80010000D01*
%TO.N,+12V*%
X121580001Y-84054999D02*
X121155002Y-83630000D01*
X121580001Y-88394999D02*
X121580001Y-84054999D01*
X121155002Y-83630000D02*
X120630000Y-83630000D01*
X120630000Y-89345000D02*
X121580001Y-88394999D01*
X118940799Y-89345000D02*
X118795800Y-89200001D01*
X120630000Y-89345000D02*
X118940799Y-89345000D01*
X102937400Y-93497400D02*
X102880000Y-93440000D01*
X104597200Y-93497400D02*
X102937400Y-93497400D01*
X100330000Y-91840000D02*
X100330000Y-88849200D01*
X101930000Y-93440000D02*
X100330000Y-91840000D01*
X102880000Y-93440000D02*
X101930000Y-93440000D01*
%TO.N,Input3*%
X105480000Y-85725000D02*
X106905000Y-85725000D01*
X100330000Y-80575000D02*
X105480000Y-85725000D01*
X100330000Y-79375000D02*
X100330000Y-80575000D01*
%TO.N,Input2*%
X105480000Y-84455000D02*
X106905000Y-84455000D01*
X101600000Y-80575000D02*
X105480000Y-84455000D01*
X101600000Y-79375000D02*
X101600000Y-80575000D01*
%TO.N,Input1*%
X105480000Y-83185000D02*
X106905000Y-83185000D01*
X102870000Y-80575000D02*
X105480000Y-83185000D01*
X102870000Y-79375000D02*
X102870000Y-80575000D01*
D15*
%TO.N,Motor1_In1*%
X120335000Y-84630000D02*
X120630000Y-84630000D01*
X118890000Y-83185000D02*
X120335000Y-84630000D01*
X116205000Y-83185000D02*
X118890000Y-83185000D01*
%TO.N,Motor1_In2*%
X120335000Y-85630000D02*
X120630000Y-85630000D01*
X119160000Y-84455000D02*
X120335000Y-85630000D01*
X116205000Y-84455000D02*
X119160000Y-84455000D01*
%TO.N,Motor2_In1*%
X118135000Y-86630000D02*
X120630000Y-86630000D01*
X117230000Y-85725000D02*
X118135000Y-86630000D01*
X116205000Y-85725000D02*
X117230000Y-85725000D01*
%TO.N,Motor2_In2*%
X119995000Y-88265000D02*
X120630000Y-87630000D01*
X116205000Y-88265000D02*
X119995000Y-88265000D01*
%TO.N,Motor3_In1*%
X120210001Y-89925001D02*
X120630000Y-90345000D01*
X116595001Y-89925001D02*
X120210001Y-89925001D01*
X116205000Y-89535000D02*
X116595001Y-89925001D01*
%TO.N,Motor3_In2*%
X116745000Y-91345000D02*
X120630000Y-91345000D01*
X116205000Y-90805000D02*
X116745000Y-91345000D01*
%TO.N,Motor4_In1*%
X120360000Y-92075000D02*
X120630000Y-92345000D01*
X116205000Y-92075000D02*
X120360000Y-92075000D01*
%TO.N,Motor4_In2*%
X116205000Y-93345000D02*
X120630000Y-93345000D01*
%TO.N,Motor5_In1*%
X104975000Y-92440000D02*
X102880000Y-92440000D01*
X105880000Y-93345000D02*
X104975000Y-92440000D01*
X106905000Y-93345000D02*
X105880000Y-93345000D01*
%TO.N,Motor5_In2*%
X106270000Y-91440000D02*
X102880000Y-91440000D01*
X106905000Y-92075000D02*
X106270000Y-91440000D01*
%TO.N,Motor6_In1*%
X103245000Y-90805000D02*
X102880000Y-90440000D01*
X106905000Y-90805000D02*
X103245000Y-90805000D01*
%TO.N,Motor6_In2*%
X102975000Y-89535000D02*
X102880000Y-89440000D01*
X106905000Y-89535000D02*
X102975000Y-89535000D01*
D14*
%TO.N,Net-(J8-Pad2)*%
X99120200Y-90440000D02*
X99136200Y-90424000D01*
X97780000Y-90440000D02*
X99120200Y-90440000D01*
%TO.N,Net-(J8-Pad1)*%
X98730000Y-91440000D02*
X98930002Y-91640002D01*
X98930002Y-91640002D02*
X98930002Y-92659200D01*
X97780000Y-91440000D02*
X98730000Y-91440000D01*
%TO.N,Net-(J7-Pad2)*%
X124894600Y-84630000D02*
X124307600Y-85217000D01*
X125730000Y-84630000D02*
X124894600Y-84630000D01*
%TO.N,Net-(J7-Pad1)*%
X125730000Y-82499200D02*
X125755400Y-82473800D01*
X125730000Y-83630000D02*
X125730000Y-82499200D01*
%TO.N,Net-(J9-Pad2)*%
X128000000Y-86630000D02*
X128270000Y-86360000D01*
X125730000Y-86630000D02*
X128000000Y-86630000D01*
%TO.N,Net-(J9-Pad1)*%
X125730000Y-85630000D02*
X126126799Y-85630000D01*
X128270000Y-83486799D02*
X128270000Y-83185000D01*
X126126799Y-85630000D02*
X128270000Y-83486799D01*
%TD*%
M02*
