%TF.GenerationSoftware,KiCad,Pcbnew,(5.1.9)-1*%
%TF.CreationDate,2021-01-25T19:02:33+00:00*%
%TF.ProjectId,RC-DC-Motor_Splitter,52432d44-432d-44d6-9f74-6f725f53706c,rev?*%
%TF.SameCoordinates,Original*%
%TF.FileFunction,Legend,Bot*%
%TF.FilePolarity,Positive*%
%FSLAX46Y46*%
G04 Gerber Fmt 4.6, Leading zero omitted, Abs format (unit mm)*
G04 Created by KiCad (PCBNEW (5.1.9)-1) date 2021-01-25 19:02:33*
%MOMM*%
%LPD*%
G01*
G04 APERTURE LIST*
%ADD10C,0.250000*%
%ADD11C,0.150000*%
G04 APERTURE END LIST*
D10*
X117086661Y-84559460D02*
X117419995Y-84083270D01*
X117658090Y-84559460D02*
X117658090Y-83559460D01*
X117277138Y-83559460D01*
X117181900Y-83607080D01*
X117134280Y-83654699D01*
X117086661Y-83749937D01*
X117086661Y-83892794D01*
X117134280Y-83988032D01*
X117181900Y-84035651D01*
X117277138Y-84083270D01*
X117658090Y-84083270D01*
X115943804Y-83511841D02*
X116800947Y-84797556D01*
X115039042Y-84464222D02*
X115086661Y-84511841D01*
X115229519Y-84559460D01*
X115324757Y-84559460D01*
X115467614Y-84511841D01*
X115562852Y-84416603D01*
X115610471Y-84321365D01*
X115658090Y-84130889D01*
X115658090Y-83988032D01*
X115610471Y-83797556D01*
X115562852Y-83702318D01*
X115467614Y-83607080D01*
X115324757Y-83559460D01*
X115229519Y-83559460D01*
X115086661Y-83607080D01*
X115039042Y-83654699D01*
X114610471Y-84178508D02*
X113848566Y-84178508D01*
X113372376Y-84559460D02*
X113372376Y-83559460D01*
X113134280Y-83559460D01*
X112991423Y-83607080D01*
X112896185Y-83702318D01*
X112848566Y-83797556D01*
X112800947Y-83988032D01*
X112800947Y-84130889D01*
X112848566Y-84321365D01*
X112896185Y-84416603D01*
X112991423Y-84511841D01*
X113134280Y-84559460D01*
X113372376Y-84559460D01*
X111800947Y-84464222D02*
X111848566Y-84511841D01*
X111991423Y-84559460D01*
X112086661Y-84559460D01*
X112229519Y-84511841D01*
X112324757Y-84416603D01*
X112372376Y-84321365D01*
X112419995Y-84130889D01*
X112419995Y-83988032D01*
X112372376Y-83797556D01*
X112324757Y-83702318D01*
X112229519Y-83607080D01*
X112086661Y-83559460D01*
X111991423Y-83559460D01*
X111848566Y-83607080D01*
X111800947Y-83654699D01*
X110610471Y-84559460D02*
X110610471Y-83559460D01*
X110277138Y-84273746D01*
X109943804Y-83559460D01*
X109943804Y-84559460D01*
X109324757Y-84559460D02*
X109419995Y-84511841D01*
X109467614Y-84464222D01*
X109515233Y-84368984D01*
X109515233Y-84083270D01*
X109467614Y-83988032D01*
X109419995Y-83940413D01*
X109324757Y-83892794D01*
X109181900Y-83892794D01*
X109086661Y-83940413D01*
X109039042Y-83988032D01*
X108991423Y-84083270D01*
X108991423Y-84368984D01*
X109039042Y-84464222D01*
X109086661Y-84511841D01*
X109181900Y-84559460D01*
X109324757Y-84559460D01*
X108705709Y-83892794D02*
X108324757Y-83892794D01*
X108562852Y-83559460D02*
X108562852Y-84416603D01*
X108515233Y-84511841D01*
X108419995Y-84559460D01*
X108324757Y-84559460D01*
X107848566Y-84559460D02*
X107943804Y-84511841D01*
X107991423Y-84464222D01*
X108039042Y-84368984D01*
X108039042Y-84083270D01*
X107991423Y-83988032D01*
X107943804Y-83940413D01*
X107848566Y-83892794D01*
X107705709Y-83892794D01*
X107610471Y-83940413D01*
X107562852Y-83988032D01*
X107515233Y-84083270D01*
X107515233Y-84368984D01*
X107562852Y-84464222D01*
X107610471Y-84511841D01*
X107705709Y-84559460D01*
X107848566Y-84559460D01*
X107086661Y-84559460D02*
X107086661Y-83892794D01*
X107086661Y-84083270D02*
X107039042Y-83988032D01*
X106991423Y-83940413D01*
X106896185Y-83892794D01*
X106800947Y-83892794D01*
X105753328Y-84511841D02*
X105610471Y-84559460D01*
X105372376Y-84559460D01*
X105277138Y-84511841D01*
X105229519Y-84464222D01*
X105181900Y-84368984D01*
X105181900Y-84273746D01*
X105229519Y-84178508D01*
X105277138Y-84130889D01*
X105372376Y-84083270D01*
X105562852Y-84035651D01*
X105658090Y-83988032D01*
X105705709Y-83940413D01*
X105753328Y-83845175D01*
X105753328Y-83749937D01*
X105705709Y-83654699D01*
X105658090Y-83607080D01*
X105562852Y-83559460D01*
X105324757Y-83559460D01*
X105181900Y-83607080D01*
X104753328Y-83892794D02*
X104753328Y-84892794D01*
X104753328Y-83940413D02*
X104658090Y-83892794D01*
X104467614Y-83892794D01*
X104372376Y-83940413D01*
X104324757Y-83988032D01*
X104277138Y-84083270D01*
X104277138Y-84368984D01*
X104324757Y-84464222D01*
X104372376Y-84511841D01*
X104467614Y-84559460D01*
X104658090Y-84559460D01*
X104753328Y-84511841D01*
X103705709Y-84559460D02*
X103800947Y-84511841D01*
X103848566Y-84416603D01*
X103848566Y-83559460D01*
X103324757Y-84559460D02*
X103324757Y-83892794D01*
X103324757Y-83559460D02*
X103372376Y-83607080D01*
X103324757Y-83654699D01*
X103277138Y-83607080D01*
X103324757Y-83559460D01*
X103324757Y-83654699D01*
X102991423Y-83892794D02*
X102610471Y-83892794D01*
X102848566Y-83559460D02*
X102848566Y-84416603D01*
X102800947Y-84511841D01*
X102705709Y-84559460D01*
X102610471Y-84559460D01*
X102419995Y-83892794D02*
X102039042Y-83892794D01*
X102277138Y-83559460D02*
X102277138Y-84416603D01*
X102229519Y-84511841D01*
X102134280Y-84559460D01*
X102039042Y-84559460D01*
X101324757Y-84511841D02*
X101419995Y-84559460D01*
X101610471Y-84559460D01*
X101705709Y-84511841D01*
X101753328Y-84416603D01*
X101753328Y-84035651D01*
X101705709Y-83940413D01*
X101610471Y-83892794D01*
X101419995Y-83892794D01*
X101324757Y-83940413D01*
X101277138Y-84035651D01*
X101277138Y-84130889D01*
X101753328Y-84226127D01*
X100848566Y-84559460D02*
X100848566Y-83892794D01*
X100848566Y-84083270D02*
X100800947Y-83988032D01*
X100753328Y-83940413D01*
X100658090Y-83892794D01*
X100562852Y-83892794D01*
X113324757Y-86309460D02*
X113324757Y-85309460D01*
X113086661Y-85309460D01*
X112943804Y-85357080D01*
X112848566Y-85452318D01*
X112800947Y-85547556D01*
X112753328Y-85738032D01*
X112753328Y-85880889D01*
X112800947Y-86071365D01*
X112848566Y-86166603D01*
X112943804Y-86261841D01*
X113086661Y-86309460D01*
X113324757Y-86309460D01*
X112181900Y-86309460D02*
X112277138Y-86261841D01*
X112324757Y-86214222D01*
X112372376Y-86118984D01*
X112372376Y-85833270D01*
X112324757Y-85738032D01*
X112277138Y-85690413D01*
X112181900Y-85642794D01*
X112039042Y-85642794D01*
X111943804Y-85690413D01*
X111896185Y-85738032D01*
X111848566Y-85833270D01*
X111848566Y-86118984D01*
X111896185Y-86214222D01*
X111943804Y-86261841D01*
X112039042Y-86309460D01*
X112181900Y-86309460D01*
X111419995Y-86309460D02*
X111419995Y-85642794D01*
X111419995Y-85738032D02*
X111372376Y-85690413D01*
X111277138Y-85642794D01*
X111134280Y-85642794D01*
X111039042Y-85690413D01*
X110991423Y-85785651D01*
X110991423Y-86309460D01*
X110991423Y-85785651D02*
X110943804Y-85690413D01*
X110848566Y-85642794D01*
X110705709Y-85642794D01*
X110610471Y-85690413D01*
X110562852Y-85785651D01*
X110562852Y-86309460D01*
X109419995Y-85309460D02*
X109181900Y-86309460D01*
X108991423Y-85595175D01*
X108800947Y-86309460D01*
X108562852Y-85309460D01*
X108181900Y-86309460D02*
X108181900Y-85642794D01*
X108181900Y-85309460D02*
X108229519Y-85357080D01*
X108181900Y-85404699D01*
X108134280Y-85357080D01*
X108181900Y-85309460D01*
X108181900Y-85404699D01*
X107562852Y-86309460D02*
X107658090Y-86261841D01*
X107705709Y-86166603D01*
X107705709Y-85309460D01*
X107229519Y-86261841D02*
X107134280Y-86309460D01*
X106943804Y-86309460D01*
X106848566Y-86261841D01*
X106800947Y-86166603D01*
X106800947Y-86118984D01*
X106848566Y-86023746D01*
X106943804Y-85976127D01*
X107086661Y-85976127D01*
X107181900Y-85928508D01*
X107229519Y-85833270D01*
X107229519Y-85785651D01*
X107181900Y-85690413D01*
X107086661Y-85642794D01*
X106943804Y-85642794D01*
X106848566Y-85690413D01*
X106229519Y-86309460D02*
X106324757Y-86261841D01*
X106372376Y-86214222D01*
X106419995Y-86118984D01*
X106419995Y-85833270D01*
X106372376Y-85738032D01*
X106324757Y-85690413D01*
X106229519Y-85642794D01*
X106086661Y-85642794D01*
X105991423Y-85690413D01*
X105943804Y-85738032D01*
X105896185Y-85833270D01*
X105896185Y-86118984D01*
X105943804Y-86214222D01*
X105991423Y-86261841D01*
X106086661Y-86309460D01*
X106229519Y-86309460D01*
X105467614Y-85642794D02*
X105467614Y-86309460D01*
X105467614Y-85738032D02*
X105419995Y-85690413D01*
X105324757Y-85642794D01*
X105181899Y-85642794D01*
X105086661Y-85690413D01*
X105039042Y-85785651D01*
X105039042Y-86309460D01*
X110896185Y-87154699D02*
X110848566Y-87107080D01*
X110753328Y-87059460D01*
X110515233Y-87059460D01*
X110419995Y-87107080D01*
X110372376Y-87154699D01*
X110324757Y-87249937D01*
X110324757Y-87345175D01*
X110372376Y-87488032D01*
X110943804Y-88059460D01*
X110324757Y-88059460D01*
X109705709Y-87059460D02*
X109610471Y-87059460D01*
X109515233Y-87107080D01*
X109467614Y-87154699D01*
X109419995Y-87249937D01*
X109372376Y-87440413D01*
X109372376Y-87678508D01*
X109419995Y-87868984D01*
X109467614Y-87964222D01*
X109515233Y-88011841D01*
X109610471Y-88059460D01*
X109705709Y-88059460D01*
X109800947Y-88011841D01*
X109848566Y-87964222D01*
X109896185Y-87868984D01*
X109943804Y-87678508D01*
X109943804Y-87440413D01*
X109896185Y-87249937D01*
X109848566Y-87154699D01*
X109800947Y-87107080D01*
X109705709Y-87059460D01*
X108991423Y-87154699D02*
X108943804Y-87107080D01*
X108848566Y-87059460D01*
X108610471Y-87059460D01*
X108515233Y-87107080D01*
X108467614Y-87154699D01*
X108419995Y-87249937D01*
X108419995Y-87345175D01*
X108467614Y-87488032D01*
X109039042Y-88059460D01*
X108419995Y-88059460D01*
X107467614Y-88059460D02*
X108039042Y-88059460D01*
X107753328Y-88059460D02*
X107753328Y-87059460D01*
X107848566Y-87202318D01*
X107943804Y-87297556D01*
X108039042Y-87345175D01*
D11*
X97946219Y-91538323D02*
X98946219Y-91538323D01*
X98231933Y-91204990D01*
X98946219Y-90871657D01*
X97946219Y-90871657D01*
X98946219Y-89919276D02*
X98946219Y-90395466D01*
X98470028Y-90443085D01*
X98517647Y-90395466D01*
X98565266Y-90300228D01*
X98565266Y-90062133D01*
X98517647Y-89966895D01*
X98470028Y-89919276D01*
X98374790Y-89871657D01*
X98136695Y-89871657D01*
X98041457Y-89919276D01*
X97993838Y-89966895D01*
X97946219Y-90062133D01*
X97946219Y-90300228D01*
X97993838Y-90395466D01*
X98041457Y-90443085D01*
X96677171Y-92347847D02*
X96677171Y-91585942D01*
X96677171Y-91109752D02*
X96677171Y-90347847D01*
X96677171Y-89871657D02*
X96677171Y-89109752D01*
X94646219Y-91538323D02*
X95646219Y-91538323D01*
X94931933Y-91204990D01*
X95646219Y-90871657D01*
X94646219Y-90871657D01*
X95646219Y-89966895D02*
X95646219Y-90157371D01*
X95598600Y-90252609D01*
X95550980Y-90300228D01*
X95408123Y-90395466D01*
X95217647Y-90443085D01*
X94836695Y-90443085D01*
X94741457Y-90395466D01*
X94693838Y-90347847D01*
X94646219Y-90252609D01*
X94646219Y-90062133D01*
X94693838Y-89966895D01*
X94741457Y-89919276D01*
X94836695Y-89871657D01*
X95074790Y-89871657D01*
X95170028Y-89919276D01*
X95217647Y-89966895D01*
X95265266Y-90062133D01*
X95265266Y-90252609D01*
X95217647Y-90347847D01*
X95170028Y-90395466D01*
X95074790Y-90443085D01*
X120773180Y-89766876D02*
X119773180Y-89766876D01*
X120487466Y-90100209D01*
X119773180Y-90433542D01*
X120773180Y-90433542D01*
X119773180Y-90814495D02*
X119773180Y-91433542D01*
X120154133Y-91100209D01*
X120154133Y-91243066D01*
X120201752Y-91338304D01*
X120249371Y-91385923D01*
X120344609Y-91433542D01*
X120582704Y-91433542D01*
X120677942Y-91385923D01*
X120725561Y-91338304D01*
X120773180Y-91243066D01*
X120773180Y-90957352D01*
X120725561Y-90862114D01*
X120677942Y-90814495D01*
X122042228Y-88957352D02*
X122042228Y-89719257D01*
X122042228Y-90195447D02*
X122042228Y-90957352D01*
X122042228Y-91433542D02*
X122042228Y-92195447D01*
X124073180Y-89766876D02*
X123073180Y-89766876D01*
X123787466Y-90100209D01*
X123073180Y-90433542D01*
X124073180Y-90433542D01*
X123406514Y-91338304D02*
X124073180Y-91338304D01*
X123025561Y-91100209D02*
X123739847Y-90862114D01*
X123739847Y-91481161D01*
X120773180Y-82883476D02*
X119773180Y-82883476D01*
X120487466Y-83216809D01*
X119773180Y-83550142D01*
X120773180Y-83550142D01*
X120773180Y-84550142D02*
X120773180Y-83978714D01*
X120773180Y-84264428D02*
X119773180Y-84264428D01*
X119916038Y-84169190D01*
X120011276Y-84073952D01*
X120058895Y-83978714D01*
X122042228Y-82073952D02*
X122042228Y-82835857D01*
X122042228Y-83312047D02*
X122042228Y-84073952D01*
X122042228Y-84550142D02*
X122042228Y-85312047D01*
X124073180Y-82883476D02*
X123073180Y-82883476D01*
X123787466Y-83216809D01*
X123073180Y-83550142D01*
X124073180Y-83550142D01*
X123168419Y-83978714D02*
X123120800Y-84026333D01*
X123073180Y-84121571D01*
X123073180Y-84359666D01*
X123120800Y-84454904D01*
X123168419Y-84502523D01*
X123263657Y-84550142D01*
X123358895Y-84550142D01*
X123501752Y-84502523D01*
X124073180Y-83931095D01*
X124073180Y-84550142D01*
X95505752Y-85856028D02*
X94743847Y-85856028D01*
X97448733Y-82808028D02*
X96686828Y-82808028D01*
X97067780Y-83188980D02*
X97067780Y-82427076D01*
X95686828Y-83188980D02*
X96258257Y-83188980D01*
X95972542Y-83188980D02*
X95972542Y-82188980D01*
X96067780Y-82331838D01*
X96163019Y-82427076D01*
X96258257Y-82474695D01*
X95305876Y-82284219D02*
X95258257Y-82236600D01*
X95163019Y-82188980D01*
X94924923Y-82188980D01*
X94829685Y-82236600D01*
X94782066Y-82284219D01*
X94734447Y-82379457D01*
X94734447Y-82474695D01*
X94782066Y-82617552D01*
X95353495Y-83188980D01*
X94734447Y-83188980D01*
X96432571Y-79751180D02*
X96432571Y-78751180D01*
X95956380Y-79084514D02*
X95956380Y-79751180D01*
X95956380Y-79179752D02*
X95908761Y-79132133D01*
X95813523Y-79084514D01*
X95670666Y-79084514D01*
X95575428Y-79132133D01*
X95527809Y-79227371D01*
X95527809Y-79751180D01*
X95099238Y-78846419D02*
X95051619Y-78798800D01*
X94956380Y-78751180D01*
X94718285Y-78751180D01*
X94623047Y-78798800D01*
X94575428Y-78846419D01*
X94527809Y-78941657D01*
X94527809Y-79036895D01*
X94575428Y-79179752D01*
X95146857Y-79751180D01*
X94527809Y-79751180D01*
M02*
