M48
; DRILL file {KiCad (5.1.9)-1} date 01/23/21 19:14:40
; FORMAT={-:-/ absolute / inch / decimal}
; #@! TF.CreationDate,2021-01-23T19:14:40+00:00
; #@! TF.GenerationSoftware,Kicad,Pcbnew,(5.1.9)-1
FMAT,2
INCH
T1C0.0157
%
G90
G05
T1
X3.809Y-3.274
X3.811Y-3.4
X3.8949Y-3.648
X3.903Y-3.56
X3.924Y-3.33
X3.925Y-3.215
X3.95Y-3.498
X4.09Y-3.427
X4.118Y-3.681
X4.134Y-3.199
X4.288Y-3.554
X4.461Y-3.673
X4.488Y-3.426
X4.677Y-3.5118
X4.816Y-3.673
X4.889Y-3.516
X4.893Y-3.586
X4.894Y-3.355
X4.951Y-3.247
X4.952Y-3.18
T0
M30
