%TF.GenerationSoftware,KiCad,Pcbnew,(5.1.9)-1*%
%TF.CreationDate,2021-01-23T19:14:43+00:00*%
%TF.ProjectId,RC-DC-Motor_Splitter,52432d44-432d-44d6-9f74-6f725f53706c,rev?*%
%TF.SameCoordinates,Original*%
%TF.FileFunction,Paste,Top*%
%TF.FilePolarity,Positive*%
%FSLAX46Y46*%
G04 Gerber Fmt 4.6, Leading zero omitted, Abs format (unit mm)*
G04 Created by KiCad (PCBNEW (5.1.9)-1) date 2021-01-23 19:14:43*
%MOMM*%
%LPD*%
G01*
G04 APERTURE LIST*
%ADD10R,2.540000X2.000000*%
%ADD11R,0.760000X1.600000*%
%ADD12R,1.100000X0.510000*%
G04 APERTURE END LIST*
D10*
%TO.C,J11*%
X94615000Y-80010000D03*
%TD*%
%TO.C,J1*%
X128270000Y-80645000D03*
%TD*%
%TO.C,J5*%
X94615000Y-86360000D03*
X94615000Y-83185000D03*
%TD*%
%TO.C,J9*%
X128270000Y-86360000D03*
X128270000Y-83185000D03*
%TD*%
%TO.C,J3*%
X128270000Y-92710000D03*
X128270000Y-89535000D03*
%TD*%
%TO.C,J4*%
X94615000Y-89535000D03*
X94615000Y-92710000D03*
%TD*%
D11*
%TO.C,SW1*%
X102870000Y-86995000D03*
X99060000Y-79375000D03*
X101600000Y-86995000D03*
X100330000Y-79375000D03*
X100330000Y-86995000D03*
X101600000Y-79375000D03*
X99060000Y-86995000D03*
X102870000Y-79375000D03*
%TD*%
D12*
%TO.C,U4*%
X97780000Y-93440000D03*
X97780000Y-92440000D03*
X102880000Y-89440000D03*
X97780000Y-91440000D03*
X97780000Y-90440000D03*
X97780000Y-89440000D03*
X102880000Y-90440000D03*
X102880000Y-91440000D03*
X102880000Y-92440000D03*
X102880000Y-93440000D03*
%TD*%
%TO.C,U3*%
X125730000Y-89345000D03*
X125730000Y-90345000D03*
X120630000Y-93345000D03*
X125730000Y-91345000D03*
X125730000Y-92345000D03*
X125730000Y-93345000D03*
X120630000Y-92345000D03*
X120630000Y-91345000D03*
X120630000Y-90345000D03*
X120630000Y-89345000D03*
%TD*%
%TO.C,U2*%
X125730000Y-83630000D03*
X125730000Y-84630000D03*
X120630000Y-87630000D03*
X125730000Y-85630000D03*
X125730000Y-86630000D03*
X125730000Y-87630000D03*
X120630000Y-86630000D03*
X120630000Y-85630000D03*
X120630000Y-84630000D03*
X120630000Y-83630000D03*
%TD*%
%TO.C,U1*%
G36*
G01*
X115180000Y-82065000D02*
X115180000Y-81765000D01*
G75*
G02*
X115330000Y-81615000I150000J0D01*
G01*
X117080000Y-81615000D01*
G75*
G02*
X117230000Y-81765000I0J-150000D01*
G01*
X117230000Y-82065000D01*
G75*
G02*
X117080000Y-82215000I-150000J0D01*
G01*
X115330000Y-82215000D01*
G75*
G02*
X115180000Y-82065000I0J150000D01*
G01*
G37*
G36*
G01*
X115180000Y-83335000D02*
X115180000Y-83035000D01*
G75*
G02*
X115330000Y-82885000I150000J0D01*
G01*
X117080000Y-82885000D01*
G75*
G02*
X117230000Y-83035000I0J-150000D01*
G01*
X117230000Y-83335000D01*
G75*
G02*
X117080000Y-83485000I-150000J0D01*
G01*
X115330000Y-83485000D01*
G75*
G02*
X115180000Y-83335000I0J150000D01*
G01*
G37*
G36*
G01*
X115180000Y-84605000D02*
X115180000Y-84305000D01*
G75*
G02*
X115330000Y-84155000I150000J0D01*
G01*
X117080000Y-84155000D01*
G75*
G02*
X117230000Y-84305000I0J-150000D01*
G01*
X117230000Y-84605000D01*
G75*
G02*
X117080000Y-84755000I-150000J0D01*
G01*
X115330000Y-84755000D01*
G75*
G02*
X115180000Y-84605000I0J150000D01*
G01*
G37*
G36*
G01*
X115180000Y-85875000D02*
X115180000Y-85575000D01*
G75*
G02*
X115330000Y-85425000I150000J0D01*
G01*
X117080000Y-85425000D01*
G75*
G02*
X117230000Y-85575000I0J-150000D01*
G01*
X117230000Y-85875000D01*
G75*
G02*
X117080000Y-86025000I-150000J0D01*
G01*
X115330000Y-86025000D01*
G75*
G02*
X115180000Y-85875000I0J150000D01*
G01*
G37*
G36*
G01*
X115180000Y-87145000D02*
X115180000Y-86845000D01*
G75*
G02*
X115330000Y-86695000I150000J0D01*
G01*
X117080000Y-86695000D01*
G75*
G02*
X117230000Y-86845000I0J-150000D01*
G01*
X117230000Y-87145000D01*
G75*
G02*
X117080000Y-87295000I-150000J0D01*
G01*
X115330000Y-87295000D01*
G75*
G02*
X115180000Y-87145000I0J150000D01*
G01*
G37*
G36*
G01*
X115180000Y-88415000D02*
X115180000Y-88115000D01*
G75*
G02*
X115330000Y-87965000I150000J0D01*
G01*
X117080000Y-87965000D01*
G75*
G02*
X117230000Y-88115000I0J-150000D01*
G01*
X117230000Y-88415000D01*
G75*
G02*
X117080000Y-88565000I-150000J0D01*
G01*
X115330000Y-88565000D01*
G75*
G02*
X115180000Y-88415000I0J150000D01*
G01*
G37*
G36*
G01*
X115180000Y-89685000D02*
X115180000Y-89385000D01*
G75*
G02*
X115330000Y-89235000I150000J0D01*
G01*
X117080000Y-89235000D01*
G75*
G02*
X117230000Y-89385000I0J-150000D01*
G01*
X117230000Y-89685000D01*
G75*
G02*
X117080000Y-89835000I-150000J0D01*
G01*
X115330000Y-89835000D01*
G75*
G02*
X115180000Y-89685000I0J150000D01*
G01*
G37*
G36*
G01*
X115180000Y-90955000D02*
X115180000Y-90655000D01*
G75*
G02*
X115330000Y-90505000I150000J0D01*
G01*
X117080000Y-90505000D01*
G75*
G02*
X117230000Y-90655000I0J-150000D01*
G01*
X117230000Y-90955000D01*
G75*
G02*
X117080000Y-91105000I-150000J0D01*
G01*
X115330000Y-91105000D01*
G75*
G02*
X115180000Y-90955000I0J150000D01*
G01*
G37*
G36*
G01*
X115180000Y-92225000D02*
X115180000Y-91925000D01*
G75*
G02*
X115330000Y-91775000I150000J0D01*
G01*
X117080000Y-91775000D01*
G75*
G02*
X117230000Y-91925000I0J-150000D01*
G01*
X117230000Y-92225000D01*
G75*
G02*
X117080000Y-92375000I-150000J0D01*
G01*
X115330000Y-92375000D01*
G75*
G02*
X115180000Y-92225000I0J150000D01*
G01*
G37*
G36*
G01*
X115180000Y-93495000D02*
X115180000Y-93195000D01*
G75*
G02*
X115330000Y-93045000I150000J0D01*
G01*
X117080000Y-93045000D01*
G75*
G02*
X117230000Y-93195000I0J-150000D01*
G01*
X117230000Y-93495000D01*
G75*
G02*
X117080000Y-93645000I-150000J0D01*
G01*
X115330000Y-93645000D01*
G75*
G02*
X115180000Y-93495000I0J150000D01*
G01*
G37*
G36*
G01*
X105880000Y-93495000D02*
X105880000Y-93195000D01*
G75*
G02*
X106030000Y-93045000I150000J0D01*
G01*
X107780000Y-93045000D01*
G75*
G02*
X107930000Y-93195000I0J-150000D01*
G01*
X107930000Y-93495000D01*
G75*
G02*
X107780000Y-93645000I-150000J0D01*
G01*
X106030000Y-93645000D01*
G75*
G02*
X105880000Y-93495000I0J150000D01*
G01*
G37*
G36*
G01*
X105880000Y-92225000D02*
X105880000Y-91925000D01*
G75*
G02*
X106030000Y-91775000I150000J0D01*
G01*
X107780000Y-91775000D01*
G75*
G02*
X107930000Y-91925000I0J-150000D01*
G01*
X107930000Y-92225000D01*
G75*
G02*
X107780000Y-92375000I-150000J0D01*
G01*
X106030000Y-92375000D01*
G75*
G02*
X105880000Y-92225000I0J150000D01*
G01*
G37*
G36*
G01*
X105880000Y-90955000D02*
X105880000Y-90655000D01*
G75*
G02*
X106030000Y-90505000I150000J0D01*
G01*
X107780000Y-90505000D01*
G75*
G02*
X107930000Y-90655000I0J-150000D01*
G01*
X107930000Y-90955000D01*
G75*
G02*
X107780000Y-91105000I-150000J0D01*
G01*
X106030000Y-91105000D01*
G75*
G02*
X105880000Y-90955000I0J150000D01*
G01*
G37*
G36*
G01*
X105880000Y-89685000D02*
X105880000Y-89385000D01*
G75*
G02*
X106030000Y-89235000I150000J0D01*
G01*
X107780000Y-89235000D01*
G75*
G02*
X107930000Y-89385000I0J-150000D01*
G01*
X107930000Y-89685000D01*
G75*
G02*
X107780000Y-89835000I-150000J0D01*
G01*
X106030000Y-89835000D01*
G75*
G02*
X105880000Y-89685000I0J150000D01*
G01*
G37*
G36*
G01*
X105880000Y-88415000D02*
X105880000Y-88115000D01*
G75*
G02*
X106030000Y-87965000I150000J0D01*
G01*
X107780000Y-87965000D01*
G75*
G02*
X107930000Y-88115000I0J-150000D01*
G01*
X107930000Y-88415000D01*
G75*
G02*
X107780000Y-88565000I-150000J0D01*
G01*
X106030000Y-88565000D01*
G75*
G02*
X105880000Y-88415000I0J150000D01*
G01*
G37*
G36*
G01*
X105880000Y-87145000D02*
X105880000Y-86845000D01*
G75*
G02*
X106030000Y-86695000I150000J0D01*
G01*
X107780000Y-86695000D01*
G75*
G02*
X107930000Y-86845000I0J-150000D01*
G01*
X107930000Y-87145000D01*
G75*
G02*
X107780000Y-87295000I-150000J0D01*
G01*
X106030000Y-87295000D01*
G75*
G02*
X105880000Y-87145000I0J150000D01*
G01*
G37*
G36*
G01*
X105880000Y-85875000D02*
X105880000Y-85575000D01*
G75*
G02*
X106030000Y-85425000I150000J0D01*
G01*
X107780000Y-85425000D01*
G75*
G02*
X107930000Y-85575000I0J-150000D01*
G01*
X107930000Y-85875000D01*
G75*
G02*
X107780000Y-86025000I-150000J0D01*
G01*
X106030000Y-86025000D01*
G75*
G02*
X105880000Y-85875000I0J150000D01*
G01*
G37*
G36*
G01*
X105880000Y-84605000D02*
X105880000Y-84305000D01*
G75*
G02*
X106030000Y-84155000I150000J0D01*
G01*
X107780000Y-84155000D01*
G75*
G02*
X107930000Y-84305000I0J-150000D01*
G01*
X107930000Y-84605000D01*
G75*
G02*
X107780000Y-84755000I-150000J0D01*
G01*
X106030000Y-84755000D01*
G75*
G02*
X105880000Y-84605000I0J150000D01*
G01*
G37*
G36*
G01*
X105880000Y-83335000D02*
X105880000Y-83035000D01*
G75*
G02*
X106030000Y-82885000I150000J0D01*
G01*
X107780000Y-82885000D01*
G75*
G02*
X107930000Y-83035000I0J-150000D01*
G01*
X107930000Y-83335000D01*
G75*
G02*
X107780000Y-83485000I-150000J0D01*
G01*
X106030000Y-83485000D01*
G75*
G02*
X105880000Y-83335000I0J150000D01*
G01*
G37*
G36*
G01*
X105880000Y-82065000D02*
X105880000Y-81765000D01*
G75*
G02*
X106030000Y-81615000I150000J0D01*
G01*
X107780000Y-81615000D01*
G75*
G02*
X107930000Y-81765000I0J-150000D01*
G01*
X107930000Y-82065000D01*
G75*
G02*
X107780000Y-82215000I-150000J0D01*
G01*
X106030000Y-82215000D01*
G75*
G02*
X105880000Y-82065000I0J150000D01*
G01*
G37*
%TD*%
%TO.C,C1*%
G36*
G01*
X112952500Y-80025001D02*
X112952500Y-78724999D01*
G75*
G02*
X113202499Y-78475000I249999J0D01*
G01*
X114027501Y-78475000D01*
G75*
G02*
X114277500Y-78724999I0J-249999D01*
G01*
X114277500Y-80025001D01*
G75*
G02*
X114027501Y-80275000I-249999J0D01*
G01*
X113202499Y-80275000D01*
G75*
G02*
X112952500Y-80025001I0J249999D01*
G01*
G37*
G36*
G01*
X109827500Y-80025001D02*
X109827500Y-78724999D01*
G75*
G02*
X110077499Y-78475000I249999J0D01*
G01*
X110902501Y-78475000D01*
G75*
G02*
X111152500Y-78724999I0J-249999D01*
G01*
X111152500Y-80025001D01*
G75*
G02*
X110902501Y-80275000I-249999J0D01*
G01*
X110077499Y-80275000D01*
G75*
G02*
X109827500Y-80025001I0J249999D01*
G01*
G37*
%TD*%
M02*
