M48
; DRILL file {KiCad (5.1.9)-1} date 01/25/21 19:02:26
; FORMAT={-:-/ absolute / inch / decimal}
; #@! TF.CreationDate,2021-01-25T19:02:26+00:00
; #@! TF.GenerationSoftware,Kicad,Pcbnew,(5.1.9)-1
; #@! TF.FileFunction,Plated,1,2,PTH
FMAT,2
INCH
T1C0.0157
T2C0.0394
%
G90
G05
T1
X3.74Y-3.1695
X3.7827Y-3.4537
X3.792Y-3.1695
X3.7925Y-3.0741
X3.828Y-3.6263
X3.8361Y-3.5383
X3.8831Y-3.4763
X3.926Y-3.5295
X4.0511Y-3.6593
X4.06Y-3.4015
X4.062Y-3.4535
X4.14Y-3.1675
X4.2211Y-3.5323
X4.2791Y-3.1647
X4.3276Y-3.4002
X4.3786Y-3.2114
X4.4282Y-3.5322
X4.574Y-3.2555
X4.574Y-3.3895
X4.6101Y-3.4902
X4.624Y-3.4175
X4.634Y-3.3502
X4.658Y-3.2075
X4.7886Y-3.533
X4.8221Y-3.4943
X4.8261Y-3.5643
X4.8271Y-3.3333
X4.8841Y-3.2253
T2
X4.5721Y-3.1036
X4.6721Y-3.1036
X4.7721Y-3.1036
X4.8721Y-3.1036
X4.9721Y-3.1036
T0
M30
