%TF.GenerationSoftware,KiCad,Pcbnew,(5.1.9)-1*%
%TF.CreationDate,2021-01-23T19:14:43+00:00*%
%TF.ProjectId,RC-DC-Motor_Splitter,52432d44-432d-44d6-9f74-6f725f53706c,rev?*%
%TF.SameCoordinates,Original*%
%TF.FileFunction,Legend,Top*%
%TF.FilePolarity,Positive*%
%FSLAX46Y46*%
G04 Gerber Fmt 4.6, Leading zero omitted, Abs format (unit mm)*
G04 Created by KiCad (PCBNEW (5.1.9)-1) date 2021-01-23 19:14:43*
%MOMM*%
%LPD*%
G01*
G04 APERTURE LIST*
%ADD10C,0.120000*%
%ADD11C,0.150000*%
G04 APERTURE END LIST*
D10*
%TO.C,SW1*%
X97730000Y-80425000D02*
X97730000Y-85945000D01*
X103550000Y-78575000D02*
X103550000Y-80425000D01*
X104200000Y-80425000D02*
X103550000Y-80425000D01*
X104200000Y-80425000D02*
X104200000Y-85945000D01*
X104200000Y-85945000D02*
X102931000Y-85945000D01*
X99000000Y-80425000D02*
X97730000Y-80425000D01*
X99000000Y-85945000D02*
X97730000Y-85945000D01*
D11*
%TO.C,U4*%
X103330000Y-94010000D02*
X98260000Y-94010000D01*
X102400000Y-88870000D02*
X98260000Y-88870000D01*
%TO.C,U3*%
X120180000Y-88775000D02*
X125250000Y-88775000D01*
X121110000Y-93915000D02*
X125250000Y-93915000D01*
%TO.C,U2*%
X120180000Y-83060000D02*
X125250000Y-83060000D01*
X121110000Y-88200000D02*
X125250000Y-88200000D01*
D10*
%TO.C,U1*%
X111555000Y-94140000D02*
X115415000Y-94140000D01*
X115415000Y-94140000D02*
X115415000Y-93905000D01*
X111555000Y-94140000D02*
X107695000Y-94140000D01*
X107695000Y-94140000D02*
X107695000Y-93905000D01*
X111555000Y-81120000D02*
X115415000Y-81120000D01*
X115415000Y-81120000D02*
X115415000Y-81355000D01*
X111555000Y-81120000D02*
X107695000Y-81120000D01*
X107695000Y-81120000D02*
X107695000Y-81355000D01*
X107695000Y-81355000D02*
X105880000Y-81355000D01*
%TO.C,C1*%
X111341248Y-78465000D02*
X112763752Y-78465000D01*
X111341248Y-80285000D02*
X112763752Y-80285000D01*
%TO.C,J11*%
D11*
X94567380Y-80819523D02*
X95281666Y-80819523D01*
X95424523Y-80867142D01*
X95519761Y-80962380D01*
X95567380Y-81105238D01*
X95567380Y-81200476D01*
X95567380Y-79819523D02*
X95567380Y-80390952D01*
X95567380Y-80105238D02*
X94567380Y-80105238D01*
X94710238Y-80200476D01*
X94805476Y-80295714D01*
X94853095Y-80390952D01*
X95567380Y-78867142D02*
X95567380Y-79438571D01*
X95567380Y-79152857D02*
X94567380Y-79152857D01*
X94710238Y-79248095D01*
X94805476Y-79343333D01*
X94853095Y-79438571D01*
%TO.C,J1*%
X128222380Y-80978333D02*
X128936666Y-80978333D01*
X129079523Y-81025952D01*
X129174761Y-81121190D01*
X129222380Y-81264047D01*
X129222380Y-81359285D01*
X129222380Y-79978333D02*
X129222380Y-80549761D01*
X129222380Y-80264047D02*
X128222380Y-80264047D01*
X128365238Y-80359285D01*
X128460476Y-80454523D01*
X128508095Y-80549761D01*
%TO.C,J5*%
X93567380Y-83518333D02*
X94281666Y-83518333D01*
X94424523Y-83565952D01*
X94519761Y-83661190D01*
X94567380Y-83804047D01*
X94567380Y-83899285D01*
X93567380Y-82565952D02*
X93567380Y-83042142D01*
X94043571Y-83089761D01*
X93995952Y-83042142D01*
X93948333Y-82946904D01*
X93948333Y-82708809D01*
X93995952Y-82613571D01*
X94043571Y-82565952D01*
X94138809Y-82518333D01*
X94376904Y-82518333D01*
X94472142Y-82565952D01*
X94519761Y-82613571D01*
X94567380Y-82708809D01*
X94567380Y-82946904D01*
X94519761Y-83042142D01*
X94472142Y-83089761D01*
%TO.C,J9*%
X127222380Y-83518333D02*
X127936666Y-83518333D01*
X128079523Y-83565952D01*
X128174761Y-83661190D01*
X128222380Y-83804047D01*
X128222380Y-83899285D01*
X128222380Y-82994523D02*
X128222380Y-82804047D01*
X128174761Y-82708809D01*
X128127142Y-82661190D01*
X127984285Y-82565952D01*
X127793809Y-82518333D01*
X127412857Y-82518333D01*
X127317619Y-82565952D01*
X127270000Y-82613571D01*
X127222380Y-82708809D01*
X127222380Y-82899285D01*
X127270000Y-82994523D01*
X127317619Y-83042142D01*
X127412857Y-83089761D01*
X127650952Y-83089761D01*
X127746190Y-83042142D01*
X127793809Y-82994523D01*
X127841428Y-82899285D01*
X127841428Y-82708809D01*
X127793809Y-82613571D01*
X127746190Y-82565952D01*
X127650952Y-82518333D01*
%TO.C,J3*%
X127222380Y-89868333D02*
X127936666Y-89868333D01*
X128079523Y-89915952D01*
X128174761Y-90011190D01*
X128222380Y-90154047D01*
X128222380Y-90249285D01*
X127222380Y-89487380D02*
X127222380Y-88868333D01*
X127603333Y-89201666D01*
X127603333Y-89058809D01*
X127650952Y-88963571D01*
X127698571Y-88915952D01*
X127793809Y-88868333D01*
X128031904Y-88868333D01*
X128127142Y-88915952D01*
X128174761Y-88963571D01*
X128222380Y-89058809D01*
X128222380Y-89344523D01*
X128174761Y-89439761D01*
X128127142Y-89487380D01*
%TO.C,J4*%
X94567380Y-93043333D02*
X95281666Y-93043333D01*
X95424523Y-93090952D01*
X95519761Y-93186190D01*
X95567380Y-93329047D01*
X95567380Y-93424285D01*
X94900714Y-92138571D02*
X95567380Y-92138571D01*
X94519761Y-92376666D02*
X95234047Y-92614761D01*
X95234047Y-91995714D01*
%TO.C,SW1*%
X105604761Y-84518333D02*
X105652380Y-84375476D01*
X105652380Y-84137380D01*
X105604761Y-84042142D01*
X105557142Y-83994523D01*
X105461904Y-83946904D01*
X105366666Y-83946904D01*
X105271428Y-83994523D01*
X105223809Y-84042142D01*
X105176190Y-84137380D01*
X105128571Y-84327857D01*
X105080952Y-84423095D01*
X105033333Y-84470714D01*
X104938095Y-84518333D01*
X104842857Y-84518333D01*
X104747619Y-84470714D01*
X104700000Y-84423095D01*
X104652380Y-84327857D01*
X104652380Y-84089761D01*
X104700000Y-83946904D01*
X104652380Y-83613571D02*
X105652380Y-83375476D01*
X104938095Y-83185000D01*
X105652380Y-82994523D01*
X104652380Y-82756428D01*
X105652380Y-81851666D02*
X105652380Y-82423095D01*
X105652380Y-82137380D02*
X104652380Y-82137380D01*
X104795238Y-82232619D01*
X104890476Y-82327857D01*
X104938095Y-82423095D01*
%TO.C,U4*%
X99568095Y-94392380D02*
X99568095Y-95201904D01*
X99615714Y-95297142D01*
X99663333Y-95344761D01*
X99758571Y-95392380D01*
X99949047Y-95392380D01*
X100044285Y-95344761D01*
X100091904Y-95297142D01*
X100139523Y-95201904D01*
X100139523Y-94392380D01*
X101044285Y-94725714D02*
X101044285Y-95392380D01*
X100806190Y-94344761D02*
X100568095Y-95059047D01*
X101187142Y-95059047D01*
%TO.C,U3*%
X122418095Y-87297380D02*
X122418095Y-88106904D01*
X122465714Y-88202142D01*
X122513333Y-88249761D01*
X122608571Y-88297380D01*
X122799047Y-88297380D01*
X122894285Y-88249761D01*
X122941904Y-88202142D01*
X122989523Y-88106904D01*
X122989523Y-87297380D01*
X123370476Y-87297380D02*
X123989523Y-87297380D01*
X123656190Y-87678333D01*
X123799047Y-87678333D01*
X123894285Y-87725952D01*
X123941904Y-87773571D01*
X123989523Y-87868809D01*
X123989523Y-88106904D01*
X123941904Y-88202142D01*
X123894285Y-88249761D01*
X123799047Y-88297380D01*
X123513333Y-88297380D01*
X123418095Y-88249761D01*
X123370476Y-88202142D01*
%TO.C,U2*%
X122418095Y-81582380D02*
X122418095Y-82391904D01*
X122465714Y-82487142D01*
X122513333Y-82534761D01*
X122608571Y-82582380D01*
X122799047Y-82582380D01*
X122894285Y-82534761D01*
X122941904Y-82487142D01*
X122989523Y-82391904D01*
X122989523Y-81582380D01*
X123418095Y-81677619D02*
X123465714Y-81630000D01*
X123560952Y-81582380D01*
X123799047Y-81582380D01*
X123894285Y-81630000D01*
X123941904Y-81677619D01*
X123989523Y-81772857D01*
X123989523Y-81868095D01*
X123941904Y-82010952D01*
X123370476Y-82582380D01*
X123989523Y-82582380D01*
%TO.C,U1*%
X110793095Y-79732380D02*
X110793095Y-80541904D01*
X110840714Y-80637142D01*
X110888333Y-80684761D01*
X110983571Y-80732380D01*
X111174047Y-80732380D01*
X111269285Y-80684761D01*
X111316904Y-80637142D01*
X111364523Y-80541904D01*
X111364523Y-79732380D01*
X112364523Y-80732380D02*
X111793095Y-80732380D01*
X112078809Y-80732380D02*
X112078809Y-79732380D01*
X111983571Y-79875238D01*
X111888333Y-79970476D01*
X111793095Y-80018095D01*
%TO.C,C1*%
X111885833Y-77882142D02*
X111838214Y-77929761D01*
X111695357Y-77977380D01*
X111600119Y-77977380D01*
X111457261Y-77929761D01*
X111362023Y-77834523D01*
X111314404Y-77739285D01*
X111266785Y-77548809D01*
X111266785Y-77405952D01*
X111314404Y-77215476D01*
X111362023Y-77120238D01*
X111457261Y-77025000D01*
X111600119Y-76977380D01*
X111695357Y-76977380D01*
X111838214Y-77025000D01*
X111885833Y-77072619D01*
X112838214Y-77977380D02*
X112266785Y-77977380D01*
X112552500Y-77977380D02*
X112552500Y-76977380D01*
X112457261Y-77120238D01*
X112362023Y-77215476D01*
X112266785Y-77263095D01*
%TD*%
M02*
